G04 #@! TF.GenerationSoftware,KiCad,Pcbnew,(5.1.2)-1*
G04 #@! TF.CreationDate,2019-07-27T14:33:51+02:00*
G04 #@! TF.ProjectId,arbitrary_func_gen,61726269-7472-4617-9279-5f66756e635f,REV1.0*
G04 #@! TF.SameCoordinates,Original*
G04 #@! TF.FileFunction,Legend,Bot*
G04 #@! TF.FilePolarity,Positive*
%FSLAX46Y46*%
G04 Gerber Fmt 4.6, Leading zero omitted, Abs format (unit mm)*
G04 Created by KiCad (PCBNEW (5.1.2)-1) date 2019-07-27 14:33:51*
%MOMM*%
%LPD*%
G04 APERTURE LIST*
%ADD10C,0.300000*%
%ADD11C,0.254000*%
%ADD12C,0.100000*%
%ADD13C,0.010000*%
%ADD14C,0.150000*%
%ADD15C,1.500000*%
G04 APERTURE END LIST*
D10*
X142865000Y-58898571D02*
X142865000Y-60112857D01*
X142936428Y-60255714D01*
X143007857Y-60327142D01*
X143150714Y-60398571D01*
X143365000Y-60398571D01*
X143507857Y-60327142D01*
X142865000Y-59827142D02*
X143007857Y-59898571D01*
X143293571Y-59898571D01*
X143436428Y-59827142D01*
X143507857Y-59755714D01*
X143579285Y-59612857D01*
X143579285Y-59184285D01*
X143507857Y-59041428D01*
X143436428Y-58970000D01*
X143293571Y-58898571D01*
X143007857Y-58898571D01*
X142865000Y-58970000D01*
X142150714Y-59898571D02*
X142150714Y-58898571D01*
X142150714Y-58398571D02*
X142222142Y-58470000D01*
X142150714Y-58541428D01*
X142079285Y-58470000D01*
X142150714Y-58398571D01*
X142150714Y-58541428D01*
X141650714Y-58898571D02*
X141079285Y-58898571D01*
X141436428Y-58398571D02*
X141436428Y-59684285D01*
X141365000Y-59827142D01*
X141222142Y-59898571D01*
X141079285Y-59898571D01*
X140579285Y-59898571D02*
X140579285Y-58398571D01*
X139936428Y-59898571D02*
X139936428Y-59112857D01*
X140007857Y-58970000D01*
X140150714Y-58898571D01*
X140365000Y-58898571D01*
X140507857Y-58970000D01*
X140579285Y-59041428D01*
X138579285Y-58898571D02*
X138579285Y-59898571D01*
X139222142Y-58898571D02*
X139222142Y-59684285D01*
X139150714Y-59827142D01*
X139007857Y-59898571D01*
X138793571Y-59898571D01*
X138650714Y-59827142D01*
X138579285Y-59755714D01*
X137865000Y-59898571D02*
X137865000Y-58398571D01*
X137865000Y-58970000D02*
X137722142Y-58898571D01*
X137436428Y-58898571D01*
X137293571Y-58970000D01*
X137222142Y-59041428D01*
X137150714Y-59184285D01*
X137150714Y-59612857D01*
X137222142Y-59755714D01*
X137293571Y-59827142D01*
X137436428Y-59898571D01*
X137722142Y-59898571D01*
X137865000Y-59827142D01*
X136507857Y-59755714D02*
X136436428Y-59827142D01*
X136507857Y-59898571D01*
X136579285Y-59827142D01*
X136507857Y-59755714D01*
X136507857Y-59898571D01*
X135150714Y-59827142D02*
X135293571Y-59898571D01*
X135579285Y-59898571D01*
X135722142Y-59827142D01*
X135793571Y-59755714D01*
X135865000Y-59612857D01*
X135865000Y-59184285D01*
X135793571Y-59041428D01*
X135722142Y-58970000D01*
X135579285Y-58898571D01*
X135293571Y-58898571D01*
X135150714Y-58970000D01*
X134293571Y-59898571D02*
X134436428Y-59827142D01*
X134507857Y-59755714D01*
X134579285Y-59612857D01*
X134579285Y-59184285D01*
X134507857Y-59041428D01*
X134436428Y-58970000D01*
X134293571Y-58898571D01*
X134079285Y-58898571D01*
X133936428Y-58970000D01*
X133865000Y-59041428D01*
X133793571Y-59184285D01*
X133793571Y-59612857D01*
X133865000Y-59755714D01*
X133936428Y-59827142D01*
X134079285Y-59898571D01*
X134293571Y-59898571D01*
X133150714Y-59898571D02*
X133150714Y-58898571D01*
X133150714Y-59041428D02*
X133079285Y-58970000D01*
X132936428Y-58898571D01*
X132722142Y-58898571D01*
X132579285Y-58970000D01*
X132507857Y-59112857D01*
X132507857Y-59898571D01*
X132507857Y-59112857D02*
X132436428Y-58970000D01*
X132293571Y-58898571D01*
X132079285Y-58898571D01*
X131936428Y-58970000D01*
X131865000Y-59112857D01*
X131865000Y-59898571D01*
X131650714Y-58255714D02*
X130365000Y-60184285D01*
X130293571Y-58398571D02*
X129293571Y-58398571D01*
X130293571Y-59898571D01*
X129293571Y-59898571D01*
X128722142Y-59898571D02*
X128722142Y-58898571D01*
X128722142Y-58398571D02*
X128793571Y-58470000D01*
X128722142Y-58541428D01*
X128650714Y-58470000D01*
X128722142Y-58398571D01*
X128722142Y-58541428D01*
X127222142Y-58470000D02*
X127365000Y-58398571D01*
X127579285Y-58398571D01*
X127793571Y-58470000D01*
X127936428Y-58612857D01*
X128007857Y-58755714D01*
X128079285Y-59041428D01*
X128079285Y-59255714D01*
X128007857Y-59541428D01*
X127936428Y-59684285D01*
X127793571Y-59827142D01*
X127579285Y-59898571D01*
X127436428Y-59898571D01*
X127222142Y-59827142D01*
X127150714Y-59755714D01*
X127150714Y-59255714D01*
X127436428Y-59255714D01*
X125865000Y-59898571D02*
X125865000Y-59112857D01*
X125936428Y-58970000D01*
X126079285Y-58898571D01*
X126365000Y-58898571D01*
X126507857Y-58970000D01*
X125865000Y-59827142D02*
X126007857Y-59898571D01*
X126365000Y-59898571D01*
X126507857Y-59827142D01*
X126579285Y-59684285D01*
X126579285Y-59541428D01*
X126507857Y-59398571D01*
X126365000Y-59327142D01*
X126007857Y-59327142D01*
X125865000Y-59255714D01*
X125150714Y-59898571D02*
X125150714Y-58398571D01*
X124650714Y-59470000D01*
X124150714Y-58398571D01*
X124150714Y-59898571D01*
X123436428Y-59898571D02*
X123436428Y-58898571D01*
X123436428Y-58398571D02*
X123507857Y-58470000D01*
X123436428Y-58541428D01*
X123365000Y-58470000D01*
X123436428Y-58398571D01*
X123436428Y-58541428D01*
D11*
X102762709Y-84063619D02*
X102762709Y-84789333D01*
X102811090Y-84934476D01*
X102907852Y-85031238D01*
X103052995Y-85079619D01*
X103149757Y-85079619D01*
X101843471Y-84402285D02*
X101843471Y-85079619D01*
X102278900Y-84402285D02*
X102278900Y-84934476D01*
X102230519Y-85031238D01*
X102133757Y-85079619D01*
X101988614Y-85079619D01*
X101891852Y-85031238D01*
X101843471Y-84982857D01*
X101214519Y-85079619D02*
X101311280Y-85031238D01*
X101359661Y-84934476D01*
X101359661Y-84063619D01*
X100101757Y-84160380D02*
X100053376Y-84112000D01*
X99956614Y-84063619D01*
X99714709Y-84063619D01*
X99617947Y-84112000D01*
X99569566Y-84160380D01*
X99521185Y-84257142D01*
X99521185Y-84353904D01*
X99569566Y-84499047D01*
X100150138Y-85079619D01*
X99521185Y-85079619D01*
X98892233Y-84063619D02*
X98795471Y-84063619D01*
X98698709Y-84112000D01*
X98650328Y-84160380D01*
X98601947Y-84257142D01*
X98553566Y-84450666D01*
X98553566Y-84692571D01*
X98601947Y-84886095D01*
X98650328Y-84982857D01*
X98698709Y-85031238D01*
X98795471Y-85079619D01*
X98892233Y-85079619D01*
X98988995Y-85031238D01*
X99037376Y-84982857D01*
X99085757Y-84886095D01*
X99134138Y-84692571D01*
X99134138Y-84450666D01*
X99085757Y-84257142D01*
X99037376Y-84160380D01*
X98988995Y-84112000D01*
X98892233Y-84063619D01*
X97585947Y-85079619D02*
X98166519Y-85079619D01*
X97876233Y-85079619D02*
X97876233Y-84063619D01*
X97972995Y-84208761D01*
X98069757Y-84305523D01*
X98166519Y-84353904D01*
X97102138Y-85079619D02*
X96908614Y-85079619D01*
X96811852Y-85031238D01*
X96763471Y-84982857D01*
X96666709Y-84837714D01*
X96618328Y-84644190D01*
X96618328Y-84257142D01*
X96666709Y-84160380D01*
X96715090Y-84112000D01*
X96811852Y-84063619D01*
X97005376Y-84063619D01*
X97102138Y-84112000D01*
X97150519Y-84160380D01*
X97198900Y-84257142D01*
X97198900Y-84499047D01*
X97150519Y-84595809D01*
X97102138Y-84644190D01*
X97005376Y-84692571D01*
X96811852Y-84692571D01*
X96715090Y-84644190D01*
X96666709Y-84595809D01*
X96618328Y-84499047D01*
X102272423Y-82879619D02*
X102611090Y-82395809D01*
X102852995Y-82879619D02*
X102852995Y-81863619D01*
X102465947Y-81863619D01*
X102369185Y-81912000D01*
X102320804Y-81960380D01*
X102272423Y-82057142D01*
X102272423Y-82202285D01*
X102320804Y-82299047D01*
X102369185Y-82347428D01*
X102465947Y-82395809D01*
X102852995Y-82395809D01*
X101449947Y-82831238D02*
X101546709Y-82879619D01*
X101740233Y-82879619D01*
X101836995Y-82831238D01*
X101885376Y-82734476D01*
X101885376Y-82347428D01*
X101836995Y-82250666D01*
X101740233Y-82202285D01*
X101546709Y-82202285D01*
X101449947Y-82250666D01*
X101401566Y-82347428D01*
X101401566Y-82444190D01*
X101885376Y-82540952D01*
X101062900Y-82202285D02*
X100820995Y-82879619D01*
X100579090Y-82202285D01*
X98885757Y-82879619D02*
X99466328Y-82879619D01*
X99176042Y-82879619D02*
X99176042Y-81863619D01*
X99272804Y-82008761D01*
X99369566Y-82105523D01*
X99466328Y-82153904D01*
X98450328Y-82782857D02*
X98401947Y-82831238D01*
X98450328Y-82879619D01*
X98498709Y-82831238D01*
X98450328Y-82782857D01*
X98450328Y-82879619D01*
X97772995Y-81863619D02*
X97676233Y-81863619D01*
X97579471Y-81912000D01*
X97531090Y-81960380D01*
X97482709Y-82057142D01*
X97434328Y-82250666D01*
X97434328Y-82492571D01*
X97482709Y-82686095D01*
X97531090Y-82782857D01*
X97579471Y-82831238D01*
X97676233Y-82879619D01*
X97772995Y-82879619D01*
X97869757Y-82831238D01*
X97918138Y-82782857D01*
X97966519Y-82686095D01*
X98014900Y-82492571D01*
X98014900Y-82250666D01*
X97966519Y-82057142D01*
X97918138Y-81960380D01*
X97869757Y-81912000D01*
X97772995Y-81863619D01*
D10*
X102979285Y-76995000D02*
X102265000Y-76995000D01*
X103122142Y-77423571D02*
X102622142Y-75923571D01*
X102122142Y-77423571D01*
X101622142Y-77423571D02*
X101622142Y-76423571D01*
X101622142Y-76709285D02*
X101550714Y-76566428D01*
X101479285Y-76495000D01*
X101336428Y-76423571D01*
X101193571Y-76423571D01*
X100693571Y-77423571D02*
X100693571Y-75923571D01*
X100693571Y-76495000D02*
X100550714Y-76423571D01*
X100265000Y-76423571D01*
X100122142Y-76495000D01*
X100050714Y-76566428D01*
X99979285Y-76709285D01*
X99979285Y-77137857D01*
X100050714Y-77280714D01*
X100122142Y-77352142D01*
X100265000Y-77423571D01*
X100550714Y-77423571D01*
X100693571Y-77352142D01*
X99336428Y-77423571D02*
X99336428Y-76423571D01*
X99336428Y-75923571D02*
X99407857Y-75995000D01*
X99336428Y-76066428D01*
X99265000Y-75995000D01*
X99336428Y-75923571D01*
X99336428Y-76066428D01*
X98836428Y-76423571D02*
X98265000Y-76423571D01*
X98622142Y-75923571D02*
X98622142Y-77209285D01*
X98550714Y-77352142D01*
X98407857Y-77423571D01*
X98265000Y-77423571D01*
X97765000Y-77423571D02*
X97765000Y-76423571D01*
X97765000Y-76709285D02*
X97693571Y-76566428D01*
X97622142Y-76495000D01*
X97479285Y-76423571D01*
X97336428Y-76423571D01*
X96193571Y-77423571D02*
X96193571Y-76637857D01*
X96265000Y-76495000D01*
X96407857Y-76423571D01*
X96693571Y-76423571D01*
X96836428Y-76495000D01*
X96193571Y-77352142D02*
X96336428Y-77423571D01*
X96693571Y-77423571D01*
X96836428Y-77352142D01*
X96907857Y-77209285D01*
X96907857Y-77066428D01*
X96836428Y-76923571D01*
X96693571Y-76852142D01*
X96336428Y-76852142D01*
X96193571Y-76780714D01*
X95479285Y-77423571D02*
X95479285Y-76423571D01*
X95479285Y-76709285D02*
X95407857Y-76566428D01*
X95336428Y-76495000D01*
X95193571Y-76423571D01*
X95050714Y-76423571D01*
X94693571Y-76423571D02*
X94336428Y-77423571D01*
X93979285Y-76423571D02*
X94336428Y-77423571D01*
X94479285Y-77780714D01*
X94550714Y-77852142D01*
X94693571Y-77923571D01*
X92479285Y-76423571D02*
X91907857Y-76423571D01*
X92265000Y-77423571D02*
X92265000Y-76137857D01*
X92193571Y-75995000D01*
X92050714Y-75923571D01*
X91907857Y-75923571D01*
X90765000Y-76423571D02*
X90765000Y-77423571D01*
X91407857Y-76423571D02*
X91407857Y-77209285D01*
X91336428Y-77352142D01*
X91193571Y-77423571D01*
X90979285Y-77423571D01*
X90836428Y-77352142D01*
X90765000Y-77280714D01*
X90050714Y-76423571D02*
X90050714Y-77423571D01*
X90050714Y-76566428D02*
X89979285Y-76495000D01*
X89836428Y-76423571D01*
X89622142Y-76423571D01*
X89479285Y-76495000D01*
X89407857Y-76637857D01*
X89407857Y-77423571D01*
X88050714Y-77352142D02*
X88193571Y-77423571D01*
X88479285Y-77423571D01*
X88622142Y-77352142D01*
X88693571Y-77280714D01*
X88765000Y-77137857D01*
X88765000Y-76709285D01*
X88693571Y-76566428D01*
X88622142Y-76495000D01*
X88479285Y-76423571D01*
X88193571Y-76423571D01*
X88050714Y-76495000D01*
X87622142Y-76423571D02*
X87050714Y-76423571D01*
X87407857Y-75923571D02*
X87407857Y-77209285D01*
X87336428Y-77352142D01*
X87193571Y-77423571D01*
X87050714Y-77423571D01*
X86550714Y-77423571D02*
X86550714Y-76423571D01*
X86550714Y-75923571D02*
X86622142Y-75995000D01*
X86550714Y-76066428D01*
X86479285Y-75995000D01*
X86550714Y-75923571D01*
X86550714Y-76066428D01*
X85622142Y-77423571D02*
X85765000Y-77352142D01*
X85836428Y-77280714D01*
X85907857Y-77137857D01*
X85907857Y-76709285D01*
X85836428Y-76566428D01*
X85765000Y-76495000D01*
X85622142Y-76423571D01*
X85407857Y-76423571D01*
X85265000Y-76495000D01*
X85193571Y-76566428D01*
X85122142Y-76709285D01*
X85122142Y-77137857D01*
X85193571Y-77280714D01*
X85265000Y-77352142D01*
X85407857Y-77423571D01*
X85622142Y-77423571D01*
X84479285Y-76423571D02*
X84479285Y-77423571D01*
X84479285Y-76566428D02*
X84407857Y-76495000D01*
X84265000Y-76423571D01*
X84050714Y-76423571D01*
X83907857Y-76495000D01*
X83836428Y-76637857D01*
X83836428Y-77423571D01*
X102265000Y-78973571D02*
X102265000Y-80187857D01*
X102336428Y-80330714D01*
X102407857Y-80402142D01*
X102550714Y-80473571D01*
X102765000Y-80473571D01*
X102907857Y-80402142D01*
X102265000Y-79902142D02*
X102407857Y-79973571D01*
X102693571Y-79973571D01*
X102836428Y-79902142D01*
X102907857Y-79830714D01*
X102979285Y-79687857D01*
X102979285Y-79259285D01*
X102907857Y-79116428D01*
X102836428Y-79045000D01*
X102693571Y-78973571D01*
X102407857Y-78973571D01*
X102265000Y-79045000D01*
X100979285Y-79902142D02*
X101122142Y-79973571D01*
X101407857Y-79973571D01*
X101550714Y-79902142D01*
X101622142Y-79759285D01*
X101622142Y-79187857D01*
X101550714Y-79045000D01*
X101407857Y-78973571D01*
X101122142Y-78973571D01*
X100979285Y-79045000D01*
X100907857Y-79187857D01*
X100907857Y-79330714D01*
X101622142Y-79473571D01*
X100265000Y-78973571D02*
X100265000Y-79973571D01*
X100265000Y-79116428D02*
X100193571Y-79045000D01*
X100050714Y-78973571D01*
X99836428Y-78973571D01*
X99693571Y-79045000D01*
X99622142Y-79187857D01*
X99622142Y-79973571D01*
X98336428Y-79902142D02*
X98479285Y-79973571D01*
X98765000Y-79973571D01*
X98907857Y-79902142D01*
X98979285Y-79759285D01*
X98979285Y-79187857D01*
X98907857Y-79045000D01*
X98765000Y-78973571D01*
X98479285Y-78973571D01*
X98336428Y-79045000D01*
X98265000Y-79187857D01*
X98265000Y-79330714D01*
X98979285Y-79473571D01*
X97622142Y-79973571D02*
X97622142Y-78973571D01*
X97622142Y-79259285D02*
X97550714Y-79116428D01*
X97479285Y-79045000D01*
X97336428Y-78973571D01*
X97193571Y-78973571D01*
X96050714Y-79973571D02*
X96050714Y-79187857D01*
X96122142Y-79045000D01*
X96265000Y-78973571D01*
X96550714Y-78973571D01*
X96693571Y-79045000D01*
X96050714Y-79902142D02*
X96193571Y-79973571D01*
X96550714Y-79973571D01*
X96693571Y-79902142D01*
X96765000Y-79759285D01*
X96765000Y-79616428D01*
X96693571Y-79473571D01*
X96550714Y-79402142D01*
X96193571Y-79402142D01*
X96050714Y-79330714D01*
X95550714Y-78973571D02*
X94979285Y-78973571D01*
X95336428Y-78473571D02*
X95336428Y-79759285D01*
X95265000Y-79902142D01*
X95122142Y-79973571D01*
X94979285Y-79973571D01*
X94265000Y-79973571D02*
X94407857Y-79902142D01*
X94479285Y-79830714D01*
X94550714Y-79687857D01*
X94550714Y-79259285D01*
X94479285Y-79116428D01*
X94407857Y-79045000D01*
X94265000Y-78973571D01*
X94050714Y-78973571D01*
X93907857Y-79045000D01*
X93836428Y-79116428D01*
X93765000Y-79259285D01*
X93765000Y-79687857D01*
X93836428Y-79830714D01*
X93907857Y-79902142D01*
X94050714Y-79973571D01*
X94265000Y-79973571D01*
X93122142Y-79973571D02*
X93122142Y-78973571D01*
X93122142Y-79259285D02*
X93050714Y-79116428D01*
X92979285Y-79045000D01*
X92836428Y-78973571D01*
X92693571Y-78973571D01*
D12*
X155000000Y-68000000D02*
X154000000Y-68000000D01*
X156000000Y-85000000D02*
X156000000Y-69000000D01*
X78000000Y-90000000D02*
X151000000Y-90000000D01*
X73000000Y-45000000D02*
X73000000Y-85000000D01*
X151000000Y-40000000D02*
X78000000Y-40000000D01*
X156000000Y-61000000D02*
X156000000Y-45000000D01*
X154000000Y-62000000D02*
X155000000Y-62000000D01*
X156000000Y-61000000D02*
G75*
G02X155000000Y-62000000I-1000000J0D01*
G01*
X154000000Y-68000000D02*
G75*
G02X154000000Y-62000000I0J3000000D01*
G01*
X155000000Y-68000000D02*
G75*
G02X156000000Y-69000000I0J-1000000D01*
G01*
X156000000Y-85000000D02*
G75*
G02X151000000Y-90000000I-5000000J0D01*
G01*
X78000000Y-90000000D02*
G75*
G02X73000000Y-85000000I0J5000000D01*
G01*
X73000000Y-45000000D02*
G75*
G02X78000000Y-40000000I5000000J0D01*
G01*
X151000000Y-40000000D02*
G75*
G02X156000000Y-45000000I0J-5000000D01*
G01*
D13*
G36*
X143291114Y-87204505D02*
G01*
X143216461Y-87241727D01*
X143150569Y-87310261D01*
X143132423Y-87335648D01*
X143112655Y-87368866D01*
X143099828Y-87404945D01*
X143092490Y-87453098D01*
X143089187Y-87522536D01*
X143088462Y-87614206D01*
X143091737Y-87739830D01*
X143103123Y-87834154D01*
X143124959Y-87904523D01*
X143159581Y-87958286D01*
X143209330Y-88002788D01*
X143212986Y-88005423D01*
X143262015Y-88032377D01*
X143321055Y-88045712D01*
X143396141Y-88049000D01*
X143518205Y-88049000D01*
X143518256Y-88167497D01*
X143519392Y-88233492D01*
X143526314Y-88272202D01*
X143544402Y-88295419D01*
X143579038Y-88314933D01*
X143587355Y-88318920D01*
X143626280Y-88337603D01*
X143656417Y-88349403D01*
X143678826Y-88350422D01*
X143694567Y-88336761D01*
X143704698Y-88304522D01*
X143710277Y-88249804D01*
X143712365Y-88168711D01*
X143712019Y-88057344D01*
X143710300Y-87911802D01*
X143709763Y-87868269D01*
X143707828Y-87718205D01*
X143706096Y-87620042D01*
X143518308Y-87620042D01*
X143517252Y-87703364D01*
X143512562Y-87757880D01*
X143501949Y-87793837D01*
X143483128Y-87821482D01*
X143470350Y-87834965D01*
X143418110Y-87874417D01*
X143371858Y-87877628D01*
X143324133Y-87845049D01*
X143322923Y-87843846D01*
X143303506Y-87818668D01*
X143291693Y-87784447D01*
X143285735Y-87731748D01*
X143283880Y-87651131D01*
X143283846Y-87633271D01*
X143288330Y-87522175D01*
X143302926Y-87445161D01*
X143329350Y-87398147D01*
X143369317Y-87377050D01*
X143392416Y-87374923D01*
X143447238Y-87384900D01*
X143484842Y-87417752D01*
X143507477Y-87477857D01*
X143517394Y-87569598D01*
X143518308Y-87620042D01*
X143706096Y-87620042D01*
X143705778Y-87602060D01*
X143703127Y-87514679D01*
X143699394Y-87450905D01*
X143694093Y-87405582D01*
X143686742Y-87373555D01*
X143676857Y-87349668D01*
X143663954Y-87328764D01*
X143658421Y-87320898D01*
X143585031Y-87246595D01*
X143492240Y-87204467D01*
X143384904Y-87192722D01*
X143291114Y-87204505D01*
X143291114Y-87204505D01*
G37*
X143291114Y-87204505D02*
X143216461Y-87241727D01*
X143150569Y-87310261D01*
X143132423Y-87335648D01*
X143112655Y-87368866D01*
X143099828Y-87404945D01*
X143092490Y-87453098D01*
X143089187Y-87522536D01*
X143088462Y-87614206D01*
X143091737Y-87739830D01*
X143103123Y-87834154D01*
X143124959Y-87904523D01*
X143159581Y-87958286D01*
X143209330Y-88002788D01*
X143212986Y-88005423D01*
X143262015Y-88032377D01*
X143321055Y-88045712D01*
X143396141Y-88049000D01*
X143518205Y-88049000D01*
X143518256Y-88167497D01*
X143519392Y-88233492D01*
X143526314Y-88272202D01*
X143544402Y-88295419D01*
X143579038Y-88314933D01*
X143587355Y-88318920D01*
X143626280Y-88337603D01*
X143656417Y-88349403D01*
X143678826Y-88350422D01*
X143694567Y-88336761D01*
X143704698Y-88304522D01*
X143710277Y-88249804D01*
X143712365Y-88168711D01*
X143712019Y-88057344D01*
X143710300Y-87911802D01*
X143709763Y-87868269D01*
X143707828Y-87718205D01*
X143706096Y-87620042D01*
X143518308Y-87620042D01*
X143517252Y-87703364D01*
X143512562Y-87757880D01*
X143501949Y-87793837D01*
X143483128Y-87821482D01*
X143470350Y-87834965D01*
X143418110Y-87874417D01*
X143371858Y-87877628D01*
X143324133Y-87845049D01*
X143322923Y-87843846D01*
X143303506Y-87818668D01*
X143291693Y-87784447D01*
X143285735Y-87731748D01*
X143283880Y-87651131D01*
X143283846Y-87633271D01*
X143288330Y-87522175D01*
X143302926Y-87445161D01*
X143329350Y-87398147D01*
X143369317Y-87377050D01*
X143392416Y-87374923D01*
X143447238Y-87384900D01*
X143484842Y-87417752D01*
X143507477Y-87477857D01*
X143517394Y-87569598D01*
X143518308Y-87620042D01*
X143706096Y-87620042D01*
X143705778Y-87602060D01*
X143703127Y-87514679D01*
X143699394Y-87450905D01*
X143694093Y-87405582D01*
X143686742Y-87373555D01*
X143676857Y-87349668D01*
X143663954Y-87328764D01*
X143658421Y-87320898D01*
X143585031Y-87246595D01*
X143492240Y-87204467D01*
X143384904Y-87192722D01*
X143291114Y-87204505D01*
G36*
X141788336Y-87215089D02*
G01*
X141725633Y-87251358D01*
X141682039Y-87287358D01*
X141650155Y-87325075D01*
X141628190Y-87371199D01*
X141614351Y-87432421D01*
X141606847Y-87515431D01*
X141603883Y-87626919D01*
X141603539Y-87707062D01*
X141603539Y-88002065D01*
X141769615Y-88076515D01*
X141779385Y-87753402D01*
X141783421Y-87632729D01*
X141787656Y-87545141D01*
X141792903Y-87484650D01*
X141799975Y-87445268D01*
X141809689Y-87421007D01*
X141822856Y-87405880D01*
X141827081Y-87402606D01*
X141891091Y-87377034D01*
X141955792Y-87387153D01*
X141994308Y-87414000D01*
X142009975Y-87433024D01*
X142020820Y-87457988D01*
X142027712Y-87495834D01*
X142031521Y-87553502D01*
X142033117Y-87637935D01*
X142033385Y-87725928D01*
X142033437Y-87836323D01*
X142035328Y-87914463D01*
X142041655Y-87967165D01*
X142055017Y-88001242D01*
X142078015Y-88023511D01*
X142113246Y-88040787D01*
X142160303Y-88058738D01*
X142211697Y-88078278D01*
X142205579Y-87731485D01*
X142203116Y-87606468D01*
X142200233Y-87514082D01*
X142196102Y-87447881D01*
X142189893Y-87401420D01*
X142180774Y-87368256D01*
X142167917Y-87341944D01*
X142152416Y-87318729D01*
X142077629Y-87244569D01*
X141986372Y-87201684D01*
X141887117Y-87191412D01*
X141788336Y-87215089D01*
X141788336Y-87215089D01*
G37*
X141788336Y-87215089D02*
X141725633Y-87251358D01*
X141682039Y-87287358D01*
X141650155Y-87325075D01*
X141628190Y-87371199D01*
X141614351Y-87432421D01*
X141606847Y-87515431D01*
X141603883Y-87626919D01*
X141603539Y-87707062D01*
X141603539Y-88002065D01*
X141769615Y-88076515D01*
X141779385Y-87753402D01*
X141783421Y-87632729D01*
X141787656Y-87545141D01*
X141792903Y-87484650D01*
X141799975Y-87445268D01*
X141809689Y-87421007D01*
X141822856Y-87405880D01*
X141827081Y-87402606D01*
X141891091Y-87377034D01*
X141955792Y-87387153D01*
X141994308Y-87414000D01*
X142009975Y-87433024D01*
X142020820Y-87457988D01*
X142027712Y-87495834D01*
X142031521Y-87553502D01*
X142033117Y-87637935D01*
X142033385Y-87725928D01*
X142033437Y-87836323D01*
X142035328Y-87914463D01*
X142041655Y-87967165D01*
X142055017Y-88001242D01*
X142078015Y-88023511D01*
X142113246Y-88040787D01*
X142160303Y-88058738D01*
X142211697Y-88078278D01*
X142205579Y-87731485D01*
X142203116Y-87606468D01*
X142200233Y-87514082D01*
X142196102Y-87447881D01*
X142189893Y-87401420D01*
X142180774Y-87368256D01*
X142167917Y-87341944D01*
X142152416Y-87318729D01*
X142077629Y-87244569D01*
X141986372Y-87201684D01*
X141887117Y-87191412D01*
X141788336Y-87215089D01*
G36*
X144043114Y-87207256D02*
G01*
X143951536Y-87255409D01*
X143883951Y-87332905D01*
X143859943Y-87382727D01*
X143841262Y-87457533D01*
X143831699Y-87552052D01*
X143830792Y-87655210D01*
X143838079Y-87755935D01*
X143853097Y-87843153D01*
X143875385Y-87905791D01*
X143882235Y-87916579D01*
X143963368Y-87997105D01*
X144059734Y-88045336D01*
X144164299Y-88059450D01*
X144270032Y-88037629D01*
X144299457Y-88024547D01*
X144356759Y-87984231D01*
X144407050Y-87930775D01*
X144411803Y-87923995D01*
X144431122Y-87891321D01*
X144443892Y-87856394D01*
X144451436Y-87810414D01*
X144455076Y-87744584D01*
X144456135Y-87650105D01*
X144456154Y-87628923D01*
X144456106Y-87622182D01*
X144260769Y-87622182D01*
X144259632Y-87711349D01*
X144255159Y-87770520D01*
X144245754Y-87808741D01*
X144229824Y-87835053D01*
X144221692Y-87843846D01*
X144174942Y-87877261D01*
X144129553Y-87875737D01*
X144083660Y-87846752D01*
X144056288Y-87815809D01*
X144040077Y-87770643D01*
X144030974Y-87699420D01*
X144030349Y-87691114D01*
X144028796Y-87562037D01*
X144045035Y-87466172D01*
X144078848Y-87404107D01*
X144130016Y-87376432D01*
X144148280Y-87374923D01*
X144196240Y-87382513D01*
X144229047Y-87408808D01*
X144249105Y-87459095D01*
X144258822Y-87538664D01*
X144260769Y-87622182D01*
X144456106Y-87622182D01*
X144455426Y-87528249D01*
X144452371Y-87457906D01*
X144445678Y-87409163D01*
X144434040Y-87373288D01*
X144416147Y-87341548D01*
X144412192Y-87335648D01*
X144345733Y-87256104D01*
X144273315Y-87209929D01*
X144185151Y-87191599D01*
X144155213Y-87190703D01*
X144043114Y-87207256D01*
X144043114Y-87207256D01*
G37*
X144043114Y-87207256D02*
X143951536Y-87255409D01*
X143883951Y-87332905D01*
X143859943Y-87382727D01*
X143841262Y-87457533D01*
X143831699Y-87552052D01*
X143830792Y-87655210D01*
X143838079Y-87755935D01*
X143853097Y-87843153D01*
X143875385Y-87905791D01*
X143882235Y-87916579D01*
X143963368Y-87997105D01*
X144059734Y-88045336D01*
X144164299Y-88059450D01*
X144270032Y-88037629D01*
X144299457Y-88024547D01*
X144356759Y-87984231D01*
X144407050Y-87930775D01*
X144411803Y-87923995D01*
X144431122Y-87891321D01*
X144443892Y-87856394D01*
X144451436Y-87810414D01*
X144455076Y-87744584D01*
X144456135Y-87650105D01*
X144456154Y-87628923D01*
X144456106Y-87622182D01*
X144260769Y-87622182D01*
X144259632Y-87711349D01*
X144255159Y-87770520D01*
X144245754Y-87808741D01*
X144229824Y-87835053D01*
X144221692Y-87843846D01*
X144174942Y-87877261D01*
X144129553Y-87875737D01*
X144083660Y-87846752D01*
X144056288Y-87815809D01*
X144040077Y-87770643D01*
X144030974Y-87699420D01*
X144030349Y-87691114D01*
X144028796Y-87562037D01*
X144045035Y-87466172D01*
X144078848Y-87404107D01*
X144130016Y-87376432D01*
X144148280Y-87374923D01*
X144196240Y-87382513D01*
X144229047Y-87408808D01*
X144249105Y-87459095D01*
X144258822Y-87538664D01*
X144260769Y-87622182D01*
X144456106Y-87622182D01*
X144455426Y-87528249D01*
X144452371Y-87457906D01*
X144445678Y-87409163D01*
X144434040Y-87373288D01*
X144416147Y-87341548D01*
X144412192Y-87335648D01*
X144345733Y-87256104D01*
X144273315Y-87209929D01*
X144185151Y-87191599D01*
X144155213Y-87190703D01*
X144043114Y-87207256D01*
G36*
X142525746Y-87219745D02*
G01*
X142448714Y-87271567D01*
X142389184Y-87346412D01*
X142353622Y-87441654D01*
X142346429Y-87511756D01*
X142347246Y-87541009D01*
X142354086Y-87563407D01*
X142372888Y-87583474D01*
X142409592Y-87605733D01*
X142470138Y-87634709D01*
X142560466Y-87674927D01*
X142560923Y-87675129D01*
X142644067Y-87713210D01*
X142712247Y-87747025D01*
X142758495Y-87772933D01*
X142775842Y-87787295D01*
X142775846Y-87787411D01*
X142760557Y-87818685D01*
X142724804Y-87853157D01*
X142683758Y-87877990D01*
X142662963Y-87882923D01*
X142606230Y-87865862D01*
X142557373Y-87823133D01*
X142533535Y-87776155D01*
X142510603Y-87741522D01*
X142465682Y-87702081D01*
X142412877Y-87668009D01*
X142366290Y-87649480D01*
X142356548Y-87648462D01*
X142345582Y-87665215D01*
X142344921Y-87708039D01*
X142352980Y-87765781D01*
X142368173Y-87827289D01*
X142388914Y-87881409D01*
X142389962Y-87883510D01*
X142452379Y-87970660D01*
X142533274Y-88029939D01*
X142625144Y-88059034D01*
X142720487Y-88055634D01*
X142811802Y-88017428D01*
X142815862Y-88014741D01*
X142887694Y-87949642D01*
X142934927Y-87864705D01*
X142961066Y-87753021D01*
X142964574Y-87721643D01*
X142970787Y-87573536D01*
X142963339Y-87504468D01*
X142775846Y-87504468D01*
X142773410Y-87547552D01*
X142760086Y-87560126D01*
X142726868Y-87550719D01*
X142674506Y-87528483D01*
X142615976Y-87500610D01*
X142614521Y-87499872D01*
X142564911Y-87473777D01*
X142545000Y-87456363D01*
X142549910Y-87438107D01*
X142570584Y-87414120D01*
X142623181Y-87379406D01*
X142679823Y-87376856D01*
X142730631Y-87402119D01*
X142765724Y-87450847D01*
X142775846Y-87504468D01*
X142963339Y-87504468D01*
X142958008Y-87455036D01*
X142925222Y-87361055D01*
X142879579Y-87295215D01*
X142797198Y-87228681D01*
X142706454Y-87195676D01*
X142613815Y-87193573D01*
X142525746Y-87219745D01*
X142525746Y-87219745D01*
G37*
X142525746Y-87219745D02*
X142448714Y-87271567D01*
X142389184Y-87346412D01*
X142353622Y-87441654D01*
X142346429Y-87511756D01*
X142347246Y-87541009D01*
X142354086Y-87563407D01*
X142372888Y-87583474D01*
X142409592Y-87605733D01*
X142470138Y-87634709D01*
X142560466Y-87674927D01*
X142560923Y-87675129D01*
X142644067Y-87713210D01*
X142712247Y-87747025D01*
X142758495Y-87772933D01*
X142775842Y-87787295D01*
X142775846Y-87787411D01*
X142760557Y-87818685D01*
X142724804Y-87853157D01*
X142683758Y-87877990D01*
X142662963Y-87882923D01*
X142606230Y-87865862D01*
X142557373Y-87823133D01*
X142533535Y-87776155D01*
X142510603Y-87741522D01*
X142465682Y-87702081D01*
X142412877Y-87668009D01*
X142366290Y-87649480D01*
X142356548Y-87648462D01*
X142345582Y-87665215D01*
X142344921Y-87708039D01*
X142352980Y-87765781D01*
X142368173Y-87827289D01*
X142388914Y-87881409D01*
X142389962Y-87883510D01*
X142452379Y-87970660D01*
X142533274Y-88029939D01*
X142625144Y-88059034D01*
X142720487Y-88055634D01*
X142811802Y-88017428D01*
X142815862Y-88014741D01*
X142887694Y-87949642D01*
X142934927Y-87864705D01*
X142961066Y-87753021D01*
X142964574Y-87721643D01*
X142970787Y-87573536D01*
X142963339Y-87504468D01*
X142775846Y-87504468D01*
X142773410Y-87547552D01*
X142760086Y-87560126D01*
X142726868Y-87550719D01*
X142674506Y-87528483D01*
X142615976Y-87500610D01*
X142614521Y-87499872D01*
X142564911Y-87473777D01*
X142545000Y-87456363D01*
X142549910Y-87438107D01*
X142570584Y-87414120D01*
X142623181Y-87379406D01*
X142679823Y-87376856D01*
X142730631Y-87402119D01*
X142765724Y-87450847D01*
X142775846Y-87504468D01*
X142963339Y-87504468D01*
X142958008Y-87455036D01*
X142925222Y-87361055D01*
X142879579Y-87295215D01*
X142797198Y-87228681D01*
X142706454Y-87195676D01*
X142613815Y-87193573D01*
X142525746Y-87219745D01*
G36*
X140900154Y-87112120D02*
G01*
X140894428Y-87191980D01*
X140887851Y-87239039D01*
X140878738Y-87259566D01*
X140865402Y-87259829D01*
X140861077Y-87257378D01*
X140803556Y-87239636D01*
X140728732Y-87240672D01*
X140652661Y-87258910D01*
X140605082Y-87282505D01*
X140556298Y-87320198D01*
X140520636Y-87362855D01*
X140496155Y-87417057D01*
X140480913Y-87489384D01*
X140472970Y-87586419D01*
X140470384Y-87714742D01*
X140470338Y-87739358D01*
X140470308Y-88015870D01*
X140531839Y-88037320D01*
X140575541Y-88051912D01*
X140599518Y-88058706D01*
X140600223Y-88058769D01*
X140602585Y-88040345D01*
X140604594Y-87989526D01*
X140606099Y-87912993D01*
X140606947Y-87817430D01*
X140607077Y-87759329D01*
X140607349Y-87644771D01*
X140608748Y-87562667D01*
X140612151Y-87506393D01*
X140618433Y-87469326D01*
X140628471Y-87444844D01*
X140643139Y-87426325D01*
X140652298Y-87417406D01*
X140715211Y-87381466D01*
X140783864Y-87378775D01*
X140846152Y-87409170D01*
X140857671Y-87420144D01*
X140874567Y-87440779D01*
X140886286Y-87465256D01*
X140893767Y-87500647D01*
X140897946Y-87554026D01*
X140899763Y-87632466D01*
X140900154Y-87740617D01*
X140900154Y-88015870D01*
X140961685Y-88037320D01*
X141005387Y-88051912D01*
X141029364Y-88058706D01*
X141030070Y-88058769D01*
X141031874Y-88040069D01*
X141033500Y-87987322D01*
X141034883Y-87905557D01*
X141035958Y-87799805D01*
X141036660Y-87675094D01*
X141036923Y-87536455D01*
X141036923Y-87001806D01*
X140909923Y-86948236D01*
X140900154Y-87112120D01*
X140900154Y-87112120D01*
G37*
X140900154Y-87112120D02*
X140894428Y-87191980D01*
X140887851Y-87239039D01*
X140878738Y-87259566D01*
X140865402Y-87259829D01*
X140861077Y-87257378D01*
X140803556Y-87239636D01*
X140728732Y-87240672D01*
X140652661Y-87258910D01*
X140605082Y-87282505D01*
X140556298Y-87320198D01*
X140520636Y-87362855D01*
X140496155Y-87417057D01*
X140480913Y-87489384D01*
X140472970Y-87586419D01*
X140470384Y-87714742D01*
X140470338Y-87739358D01*
X140470308Y-88015870D01*
X140531839Y-88037320D01*
X140575541Y-88051912D01*
X140599518Y-88058706D01*
X140600223Y-88058769D01*
X140602585Y-88040345D01*
X140604594Y-87989526D01*
X140606099Y-87912993D01*
X140606947Y-87817430D01*
X140607077Y-87759329D01*
X140607349Y-87644771D01*
X140608748Y-87562667D01*
X140612151Y-87506393D01*
X140618433Y-87469326D01*
X140628471Y-87444844D01*
X140643139Y-87426325D01*
X140652298Y-87417406D01*
X140715211Y-87381466D01*
X140783864Y-87378775D01*
X140846152Y-87409170D01*
X140857671Y-87420144D01*
X140874567Y-87440779D01*
X140886286Y-87465256D01*
X140893767Y-87500647D01*
X140897946Y-87554026D01*
X140899763Y-87632466D01*
X140900154Y-87740617D01*
X140900154Y-88015870D01*
X140961685Y-88037320D01*
X141005387Y-88051912D01*
X141029364Y-88058706D01*
X141030070Y-88058769D01*
X141031874Y-88040069D01*
X141033500Y-87987322D01*
X141034883Y-87905557D01*
X141035958Y-87799805D01*
X141036660Y-87675094D01*
X141036923Y-87536455D01*
X141036923Y-87001806D01*
X140909923Y-86948236D01*
X140900154Y-87112120D01*
G36*
X140006499Y-87246303D02*
G01*
X139929940Y-87274733D01*
X139929064Y-87275279D01*
X139881715Y-87310127D01*
X139846759Y-87350852D01*
X139822175Y-87403925D01*
X139805938Y-87475814D01*
X139796025Y-87572992D01*
X139790414Y-87701928D01*
X139789923Y-87720298D01*
X139782859Y-87997287D01*
X139842305Y-88028028D01*
X139885319Y-88048802D01*
X139911290Y-88058646D01*
X139912491Y-88058769D01*
X139916986Y-88040606D01*
X139920556Y-87991612D01*
X139922752Y-87920031D01*
X139923231Y-87862068D01*
X139923242Y-87768170D01*
X139927534Y-87709203D01*
X139942497Y-87681079D01*
X139974518Y-87679706D01*
X140029986Y-87700998D01*
X140113731Y-87740136D01*
X140175311Y-87772643D01*
X140206983Y-87800845D01*
X140216294Y-87831582D01*
X140216308Y-87833104D01*
X140200943Y-87886054D01*
X140155453Y-87914660D01*
X140085834Y-87918803D01*
X140035687Y-87918084D01*
X140009246Y-87932527D01*
X139992757Y-87967218D01*
X139983267Y-88011416D01*
X139996943Y-88036493D01*
X140002093Y-88040082D01*
X140050575Y-88054496D01*
X140118469Y-88056537D01*
X140188388Y-88046983D01*
X140237932Y-88029522D01*
X140306430Y-87971364D01*
X140345366Y-87890408D01*
X140353077Y-87827160D01*
X140347193Y-87770111D01*
X140325899Y-87723542D01*
X140283735Y-87682181D01*
X140215241Y-87640755D01*
X140114956Y-87593993D01*
X140108846Y-87591350D01*
X140018510Y-87549617D01*
X139962765Y-87515391D01*
X139938871Y-87484635D01*
X139944087Y-87453311D01*
X139975672Y-87417383D01*
X139985117Y-87409116D01*
X140048383Y-87377058D01*
X140113936Y-87378407D01*
X140171028Y-87409838D01*
X140208907Y-87468024D01*
X140212426Y-87479446D01*
X140246700Y-87534837D01*
X140290191Y-87561518D01*
X140353077Y-87587960D01*
X140353077Y-87519548D01*
X140333948Y-87420110D01*
X140277169Y-87328902D01*
X140247622Y-87298389D01*
X140180458Y-87259228D01*
X140095044Y-87241500D01*
X140006499Y-87246303D01*
X140006499Y-87246303D01*
G37*
X140006499Y-87246303D02*
X139929940Y-87274733D01*
X139929064Y-87275279D01*
X139881715Y-87310127D01*
X139846759Y-87350852D01*
X139822175Y-87403925D01*
X139805938Y-87475814D01*
X139796025Y-87572992D01*
X139790414Y-87701928D01*
X139789923Y-87720298D01*
X139782859Y-87997287D01*
X139842305Y-88028028D01*
X139885319Y-88048802D01*
X139911290Y-88058646D01*
X139912491Y-88058769D01*
X139916986Y-88040606D01*
X139920556Y-87991612D01*
X139922752Y-87920031D01*
X139923231Y-87862068D01*
X139923242Y-87768170D01*
X139927534Y-87709203D01*
X139942497Y-87681079D01*
X139974518Y-87679706D01*
X140029986Y-87700998D01*
X140113731Y-87740136D01*
X140175311Y-87772643D01*
X140206983Y-87800845D01*
X140216294Y-87831582D01*
X140216308Y-87833104D01*
X140200943Y-87886054D01*
X140155453Y-87914660D01*
X140085834Y-87918803D01*
X140035687Y-87918084D01*
X140009246Y-87932527D01*
X139992757Y-87967218D01*
X139983267Y-88011416D01*
X139996943Y-88036493D01*
X140002093Y-88040082D01*
X140050575Y-88054496D01*
X140118469Y-88056537D01*
X140188388Y-88046983D01*
X140237932Y-88029522D01*
X140306430Y-87971364D01*
X140345366Y-87890408D01*
X140353077Y-87827160D01*
X140347193Y-87770111D01*
X140325899Y-87723542D01*
X140283735Y-87682181D01*
X140215241Y-87640755D01*
X140114956Y-87593993D01*
X140108846Y-87591350D01*
X140018510Y-87549617D01*
X139962765Y-87515391D01*
X139938871Y-87484635D01*
X139944087Y-87453311D01*
X139975672Y-87417383D01*
X139985117Y-87409116D01*
X140048383Y-87377058D01*
X140113936Y-87378407D01*
X140171028Y-87409838D01*
X140208907Y-87468024D01*
X140212426Y-87479446D01*
X140246700Y-87534837D01*
X140290191Y-87561518D01*
X140353077Y-87587960D01*
X140353077Y-87519548D01*
X140333948Y-87420110D01*
X140277169Y-87328902D01*
X140247622Y-87298389D01*
X140180458Y-87259228D01*
X140095044Y-87241500D01*
X140006499Y-87246303D01*
G36*
X139346638Y-87244670D02*
G01*
X139257883Y-87277421D01*
X139185978Y-87335350D01*
X139157856Y-87376128D01*
X139127198Y-87450954D01*
X139127835Y-87505058D01*
X139160013Y-87541446D01*
X139171919Y-87547633D01*
X139223325Y-87566925D01*
X139249578Y-87561982D01*
X139258470Y-87529587D01*
X139258923Y-87511692D01*
X139275203Y-87445859D01*
X139317635Y-87399807D01*
X139376612Y-87377564D01*
X139442525Y-87383161D01*
X139496105Y-87412229D01*
X139514202Y-87428810D01*
X139527029Y-87448925D01*
X139535694Y-87479332D01*
X139541304Y-87526788D01*
X139544965Y-87598050D01*
X139547785Y-87699875D01*
X139548516Y-87732115D01*
X139551180Y-87842410D01*
X139554208Y-87920036D01*
X139558750Y-87971396D01*
X139565954Y-88002890D01*
X139576967Y-88020920D01*
X139592940Y-88031888D01*
X139603166Y-88036733D01*
X139646594Y-88053301D01*
X139672158Y-88058769D01*
X139680605Y-88040507D01*
X139685761Y-87985296D01*
X139687654Y-87892499D01*
X139686311Y-87761478D01*
X139685893Y-87741269D01*
X139682942Y-87621733D01*
X139679452Y-87534449D01*
X139674486Y-87472591D01*
X139667107Y-87429336D01*
X139656376Y-87397860D01*
X139641355Y-87371339D01*
X139633498Y-87359975D01*
X139588447Y-87309692D01*
X139538060Y-87270581D01*
X139531892Y-87267167D01*
X139441542Y-87240212D01*
X139346638Y-87244670D01*
X139346638Y-87244670D01*
G37*
X139346638Y-87244670D02*
X139257883Y-87277421D01*
X139185978Y-87335350D01*
X139157856Y-87376128D01*
X139127198Y-87450954D01*
X139127835Y-87505058D01*
X139160013Y-87541446D01*
X139171919Y-87547633D01*
X139223325Y-87566925D01*
X139249578Y-87561982D01*
X139258470Y-87529587D01*
X139258923Y-87511692D01*
X139275203Y-87445859D01*
X139317635Y-87399807D01*
X139376612Y-87377564D01*
X139442525Y-87383161D01*
X139496105Y-87412229D01*
X139514202Y-87428810D01*
X139527029Y-87448925D01*
X139535694Y-87479332D01*
X139541304Y-87526788D01*
X139544965Y-87598050D01*
X139547785Y-87699875D01*
X139548516Y-87732115D01*
X139551180Y-87842410D01*
X139554208Y-87920036D01*
X139558750Y-87971396D01*
X139565954Y-88002890D01*
X139576967Y-88020920D01*
X139592940Y-88031888D01*
X139603166Y-88036733D01*
X139646594Y-88053301D01*
X139672158Y-88058769D01*
X139680605Y-88040507D01*
X139685761Y-87985296D01*
X139687654Y-87892499D01*
X139686311Y-87761478D01*
X139685893Y-87741269D01*
X139682942Y-87621733D01*
X139679452Y-87534449D01*
X139674486Y-87472591D01*
X139667107Y-87429336D01*
X139656376Y-87397860D01*
X139641355Y-87371339D01*
X139633498Y-87359975D01*
X139588447Y-87309692D01*
X139538060Y-87270581D01*
X139531892Y-87267167D01*
X139441542Y-87240212D01*
X139346638Y-87244670D01*
G36*
X138457919Y-87400289D02*
G01*
X138458167Y-87546320D01*
X138459128Y-87658655D01*
X138461206Y-87742678D01*
X138464807Y-87803769D01*
X138470335Y-87847309D01*
X138478196Y-87878679D01*
X138488793Y-87903262D01*
X138496818Y-87917294D01*
X138563272Y-87993388D01*
X138647530Y-88041084D01*
X138740751Y-88058199D01*
X138834100Y-88042546D01*
X138889688Y-88014418D01*
X138948043Y-87965760D01*
X138987814Y-87906333D01*
X139011810Y-87828507D01*
X139022839Y-87724652D01*
X139024401Y-87648462D01*
X139024191Y-87642986D01*
X138887692Y-87642986D01*
X138886859Y-87730355D01*
X138883039Y-87788192D01*
X138874254Y-87826029D01*
X138858526Y-87853398D01*
X138839734Y-87874042D01*
X138776625Y-87913890D01*
X138708863Y-87917295D01*
X138644821Y-87884025D01*
X138639836Y-87879517D01*
X138618561Y-87856067D01*
X138605221Y-87828166D01*
X138597999Y-87786641D01*
X138595077Y-87722316D01*
X138594615Y-87651200D01*
X138595617Y-87561858D01*
X138599762Y-87502258D01*
X138608764Y-87463089D01*
X138624333Y-87435040D01*
X138637098Y-87420144D01*
X138696400Y-87382575D01*
X138764699Y-87378057D01*
X138829890Y-87406753D01*
X138842472Y-87417406D01*
X138863889Y-87441063D01*
X138877256Y-87469251D01*
X138884434Y-87511245D01*
X138887281Y-87576319D01*
X138887692Y-87642986D01*
X139024191Y-87642986D01*
X139019678Y-87525765D01*
X139003638Y-87433577D01*
X138973472Y-87364269D01*
X138926371Y-87310211D01*
X138889688Y-87282505D01*
X138823010Y-87252572D01*
X138745728Y-87238678D01*
X138673890Y-87242397D01*
X138633692Y-87257400D01*
X138617918Y-87261670D01*
X138607450Y-87245750D01*
X138600144Y-87203089D01*
X138594615Y-87138106D01*
X138588563Y-87065732D01*
X138580156Y-87022187D01*
X138564859Y-86997287D01*
X138538136Y-86980845D01*
X138521346Y-86973564D01*
X138457846Y-86946963D01*
X138457919Y-87400289D01*
X138457919Y-87400289D01*
G37*
X138457919Y-87400289D02*
X138458167Y-87546320D01*
X138459128Y-87658655D01*
X138461206Y-87742678D01*
X138464807Y-87803769D01*
X138470335Y-87847309D01*
X138478196Y-87878679D01*
X138488793Y-87903262D01*
X138496818Y-87917294D01*
X138563272Y-87993388D01*
X138647530Y-88041084D01*
X138740751Y-88058199D01*
X138834100Y-88042546D01*
X138889688Y-88014418D01*
X138948043Y-87965760D01*
X138987814Y-87906333D01*
X139011810Y-87828507D01*
X139022839Y-87724652D01*
X139024401Y-87648462D01*
X139024191Y-87642986D01*
X138887692Y-87642986D01*
X138886859Y-87730355D01*
X138883039Y-87788192D01*
X138874254Y-87826029D01*
X138858526Y-87853398D01*
X138839734Y-87874042D01*
X138776625Y-87913890D01*
X138708863Y-87917295D01*
X138644821Y-87884025D01*
X138639836Y-87879517D01*
X138618561Y-87856067D01*
X138605221Y-87828166D01*
X138597999Y-87786641D01*
X138595077Y-87722316D01*
X138594615Y-87651200D01*
X138595617Y-87561858D01*
X138599762Y-87502258D01*
X138608764Y-87463089D01*
X138624333Y-87435040D01*
X138637098Y-87420144D01*
X138696400Y-87382575D01*
X138764699Y-87378057D01*
X138829890Y-87406753D01*
X138842472Y-87417406D01*
X138863889Y-87441063D01*
X138877256Y-87469251D01*
X138884434Y-87511245D01*
X138887281Y-87576319D01*
X138887692Y-87642986D01*
X139024191Y-87642986D01*
X139019678Y-87525765D01*
X139003638Y-87433577D01*
X138973472Y-87364269D01*
X138926371Y-87310211D01*
X138889688Y-87282505D01*
X138823010Y-87252572D01*
X138745728Y-87238678D01*
X138673890Y-87242397D01*
X138633692Y-87257400D01*
X138617918Y-87261670D01*
X138607450Y-87245750D01*
X138600144Y-87203089D01*
X138594615Y-87138106D01*
X138588563Y-87065732D01*
X138580156Y-87022187D01*
X138564859Y-86997287D01*
X138538136Y-86980845D01*
X138521346Y-86973564D01*
X138457846Y-86946963D01*
X138457919Y-87400289D01*
G36*
X137664071Y-87256662D02*
G01*
X137661089Y-87308068D01*
X137658753Y-87386192D01*
X137657251Y-87484857D01*
X137656769Y-87588343D01*
X137656769Y-87938533D01*
X137718599Y-88000363D01*
X137761207Y-88038462D01*
X137798610Y-88053895D01*
X137849730Y-88052918D01*
X137870022Y-88050433D01*
X137933446Y-88043200D01*
X137985905Y-88039055D01*
X137998692Y-88038672D01*
X138041801Y-88041176D01*
X138103456Y-88047462D01*
X138127362Y-88050433D01*
X138186078Y-88055028D01*
X138225536Y-88045046D01*
X138264662Y-88014228D01*
X138278785Y-88000363D01*
X138340615Y-87938533D01*
X138340615Y-87283503D01*
X138290850Y-87260829D01*
X138247998Y-87244034D01*
X138222927Y-87238154D01*
X138216499Y-87256736D01*
X138210491Y-87308655D01*
X138205303Y-87388172D01*
X138201336Y-87489546D01*
X138199423Y-87575192D01*
X138194077Y-87912231D01*
X138147440Y-87918825D01*
X138105024Y-87914214D01*
X138084240Y-87899287D01*
X138078430Y-87871377D01*
X138073470Y-87811925D01*
X138069754Y-87728466D01*
X138067676Y-87628532D01*
X138067376Y-87577104D01*
X138067077Y-87281054D01*
X138005546Y-87259604D01*
X137961996Y-87245020D01*
X137938306Y-87238219D01*
X137937623Y-87238154D01*
X137935246Y-87256642D01*
X137932634Y-87307906D01*
X137930005Y-87385649D01*
X137927579Y-87483574D01*
X137925885Y-87575192D01*
X137920539Y-87912231D01*
X137803308Y-87912231D01*
X137797928Y-87604746D01*
X137792549Y-87297261D01*
X137735399Y-87267707D01*
X137693203Y-87247413D01*
X137668230Y-87238204D01*
X137667509Y-87238154D01*
X137664071Y-87256662D01*
X137664071Y-87256662D01*
G37*
X137664071Y-87256662D02*
X137661089Y-87308068D01*
X137658753Y-87386192D01*
X137657251Y-87484857D01*
X137656769Y-87588343D01*
X137656769Y-87938533D01*
X137718599Y-88000363D01*
X137761207Y-88038462D01*
X137798610Y-88053895D01*
X137849730Y-88052918D01*
X137870022Y-88050433D01*
X137933446Y-88043200D01*
X137985905Y-88039055D01*
X137998692Y-88038672D01*
X138041801Y-88041176D01*
X138103456Y-88047462D01*
X138127362Y-88050433D01*
X138186078Y-88055028D01*
X138225536Y-88045046D01*
X138264662Y-88014228D01*
X138278785Y-88000363D01*
X138340615Y-87938533D01*
X138340615Y-87283503D01*
X138290850Y-87260829D01*
X138247998Y-87244034D01*
X138222927Y-87238154D01*
X138216499Y-87256736D01*
X138210491Y-87308655D01*
X138205303Y-87388172D01*
X138201336Y-87489546D01*
X138199423Y-87575192D01*
X138194077Y-87912231D01*
X138147440Y-87918825D01*
X138105024Y-87914214D01*
X138084240Y-87899287D01*
X138078430Y-87871377D01*
X138073470Y-87811925D01*
X138069754Y-87728466D01*
X138067676Y-87628532D01*
X138067376Y-87577104D01*
X138067077Y-87281054D01*
X138005546Y-87259604D01*
X137961996Y-87245020D01*
X137938306Y-87238219D01*
X137937623Y-87238154D01*
X137935246Y-87256642D01*
X137932634Y-87307906D01*
X137930005Y-87385649D01*
X137927579Y-87483574D01*
X137925885Y-87575192D01*
X137920539Y-87912231D01*
X137803308Y-87912231D01*
X137797928Y-87604746D01*
X137792549Y-87297261D01*
X137735399Y-87267707D01*
X137693203Y-87247413D01*
X137668230Y-87238204D01*
X137667509Y-87238154D01*
X137664071Y-87256662D01*
G36*
X137172667Y-87253528D02*
G01*
X137116410Y-87279117D01*
X137072253Y-87310124D01*
X137039899Y-87344795D01*
X137017562Y-87389520D01*
X137003454Y-87450692D01*
X136995789Y-87534701D01*
X136992780Y-87647940D01*
X136992462Y-87722509D01*
X136992462Y-88013420D01*
X137042227Y-88036095D01*
X137081424Y-88052667D01*
X137100843Y-88058769D01*
X137104558Y-88040610D01*
X137107505Y-87991648D01*
X137109309Y-87920153D01*
X137109692Y-87863385D01*
X137111339Y-87781371D01*
X137115778Y-87716309D01*
X137122260Y-87676467D01*
X137127410Y-87668000D01*
X137162023Y-87676646D01*
X137216360Y-87698823D01*
X137279278Y-87728886D01*
X137339632Y-87761192D01*
X137386279Y-87790098D01*
X137408074Y-87809961D01*
X137408161Y-87810175D01*
X137406286Y-87846935D01*
X137389475Y-87882026D01*
X137359961Y-87910528D01*
X137316884Y-87920061D01*
X137280068Y-87918950D01*
X137227926Y-87918133D01*
X137200556Y-87930349D01*
X137184118Y-87962624D01*
X137182045Y-87968710D01*
X137174919Y-88014739D01*
X137193976Y-88042687D01*
X137243647Y-88056007D01*
X137297303Y-88058470D01*
X137393858Y-88040210D01*
X137443841Y-88014131D01*
X137505571Y-87952868D01*
X137538310Y-87877670D01*
X137541247Y-87798211D01*
X137513576Y-87724167D01*
X137471953Y-87677769D01*
X137430396Y-87651793D01*
X137365078Y-87618907D01*
X137288962Y-87585557D01*
X137276274Y-87580461D01*
X137192667Y-87543565D01*
X137144470Y-87511046D01*
X137128970Y-87478718D01*
X137143450Y-87442394D01*
X137168308Y-87414000D01*
X137227061Y-87379039D01*
X137291707Y-87376417D01*
X137350992Y-87403358D01*
X137393661Y-87457088D01*
X137399261Y-87470950D01*
X137431867Y-87521936D01*
X137479470Y-87559787D01*
X137539539Y-87590850D01*
X137539539Y-87502768D01*
X137536003Y-87448951D01*
X137520844Y-87406534D01*
X137487232Y-87361279D01*
X137454965Y-87326420D01*
X137404791Y-87277062D01*
X137365807Y-87250547D01*
X137323936Y-87239911D01*
X137276540Y-87238154D01*
X137172667Y-87253528D01*
X137172667Y-87253528D01*
G37*
X137172667Y-87253528D02*
X137116410Y-87279117D01*
X137072253Y-87310124D01*
X137039899Y-87344795D01*
X137017562Y-87389520D01*
X137003454Y-87450692D01*
X136995789Y-87534701D01*
X136992780Y-87647940D01*
X136992462Y-87722509D01*
X136992462Y-88013420D01*
X137042227Y-88036095D01*
X137081424Y-88052667D01*
X137100843Y-88058769D01*
X137104558Y-88040610D01*
X137107505Y-87991648D01*
X137109309Y-87920153D01*
X137109692Y-87863385D01*
X137111339Y-87781371D01*
X137115778Y-87716309D01*
X137122260Y-87676467D01*
X137127410Y-87668000D01*
X137162023Y-87676646D01*
X137216360Y-87698823D01*
X137279278Y-87728886D01*
X137339632Y-87761192D01*
X137386279Y-87790098D01*
X137408074Y-87809961D01*
X137408161Y-87810175D01*
X137406286Y-87846935D01*
X137389475Y-87882026D01*
X137359961Y-87910528D01*
X137316884Y-87920061D01*
X137280068Y-87918950D01*
X137227926Y-87918133D01*
X137200556Y-87930349D01*
X137184118Y-87962624D01*
X137182045Y-87968710D01*
X137174919Y-88014739D01*
X137193976Y-88042687D01*
X137243647Y-88056007D01*
X137297303Y-88058470D01*
X137393858Y-88040210D01*
X137443841Y-88014131D01*
X137505571Y-87952868D01*
X137538310Y-87877670D01*
X137541247Y-87798211D01*
X137513576Y-87724167D01*
X137471953Y-87677769D01*
X137430396Y-87651793D01*
X137365078Y-87618907D01*
X137288962Y-87585557D01*
X137276274Y-87580461D01*
X137192667Y-87543565D01*
X137144470Y-87511046D01*
X137128970Y-87478718D01*
X137143450Y-87442394D01*
X137168308Y-87414000D01*
X137227061Y-87379039D01*
X137291707Y-87376417D01*
X137350992Y-87403358D01*
X137393661Y-87457088D01*
X137399261Y-87470950D01*
X137431867Y-87521936D01*
X137479470Y-87559787D01*
X137539539Y-87590850D01*
X137539539Y-87502768D01*
X137536003Y-87448951D01*
X137520844Y-87406534D01*
X137487232Y-87361279D01*
X137454965Y-87326420D01*
X137404791Y-87277062D01*
X137365807Y-87250547D01*
X137323936Y-87239911D01*
X137276540Y-87238154D01*
X137172667Y-87253528D01*
G36*
X136489193Y-87256782D02*
G01*
X136465839Y-87266988D01*
X136410098Y-87311134D01*
X136362431Y-87374967D01*
X136332952Y-87443087D01*
X136328154Y-87476670D01*
X136344240Y-87523556D01*
X136379525Y-87548365D01*
X136417356Y-87563387D01*
X136434679Y-87566155D01*
X136443114Y-87546066D01*
X136459770Y-87502351D01*
X136467077Y-87482598D01*
X136508052Y-87414271D01*
X136567378Y-87380191D01*
X136643448Y-87381239D01*
X136649082Y-87382581D01*
X136689695Y-87401836D01*
X136719552Y-87439375D01*
X136739945Y-87499809D01*
X136752164Y-87587751D01*
X136757500Y-87707813D01*
X136758000Y-87771698D01*
X136758248Y-87872403D01*
X136759874Y-87941054D01*
X136764199Y-87984673D01*
X136772546Y-88010282D01*
X136786235Y-88024903D01*
X136806589Y-88035558D01*
X136807766Y-88036095D01*
X136846962Y-88052667D01*
X136866381Y-88058769D01*
X136869365Y-88040319D01*
X136871919Y-87989323D01*
X136873860Y-87912308D01*
X136875003Y-87815805D01*
X136875231Y-87745184D01*
X136874068Y-87608525D01*
X136869521Y-87504851D01*
X136860001Y-87428108D01*
X136843919Y-87372246D01*
X136819687Y-87331212D01*
X136785714Y-87298954D01*
X136752167Y-87276440D01*
X136671501Y-87246476D01*
X136577619Y-87239718D01*
X136489193Y-87256782D01*
X136489193Y-87256782D01*
G37*
X136489193Y-87256782D02*
X136465839Y-87266988D01*
X136410098Y-87311134D01*
X136362431Y-87374967D01*
X136332952Y-87443087D01*
X136328154Y-87476670D01*
X136344240Y-87523556D01*
X136379525Y-87548365D01*
X136417356Y-87563387D01*
X136434679Y-87566155D01*
X136443114Y-87546066D01*
X136459770Y-87502351D01*
X136467077Y-87482598D01*
X136508052Y-87414271D01*
X136567378Y-87380191D01*
X136643448Y-87381239D01*
X136649082Y-87382581D01*
X136689695Y-87401836D01*
X136719552Y-87439375D01*
X136739945Y-87499809D01*
X136752164Y-87587751D01*
X136757500Y-87707813D01*
X136758000Y-87771698D01*
X136758248Y-87872403D01*
X136759874Y-87941054D01*
X136764199Y-87984673D01*
X136772546Y-88010282D01*
X136786235Y-88024903D01*
X136806589Y-88035558D01*
X136807766Y-88036095D01*
X136846962Y-88052667D01*
X136866381Y-88058769D01*
X136869365Y-88040319D01*
X136871919Y-87989323D01*
X136873860Y-87912308D01*
X136875003Y-87815805D01*
X136875231Y-87745184D01*
X136874068Y-87608525D01*
X136869521Y-87504851D01*
X136860001Y-87428108D01*
X136843919Y-87372246D01*
X136819687Y-87331212D01*
X136785714Y-87298954D01*
X136752167Y-87276440D01*
X136671501Y-87246476D01*
X136577619Y-87239718D01*
X136489193Y-87256782D01*
G36*
X135814776Y-87267838D02*
G01*
X135737472Y-87318361D01*
X135700186Y-87363590D01*
X135670647Y-87445663D01*
X135668301Y-87510607D01*
X135673615Y-87597445D01*
X135873885Y-87685103D01*
X135971261Y-87729887D01*
X136034887Y-87765913D01*
X136067971Y-87797117D01*
X136073720Y-87827436D01*
X136055342Y-87860805D01*
X136035077Y-87882923D01*
X135976111Y-87918393D01*
X135911976Y-87920879D01*
X135853074Y-87893235D01*
X135809803Y-87838320D01*
X135802064Y-87818928D01*
X135764994Y-87758364D01*
X135722346Y-87732552D01*
X135663846Y-87710471D01*
X135663846Y-87794184D01*
X135669018Y-87851150D01*
X135689277Y-87899189D01*
X135731738Y-87954346D01*
X135738049Y-87961514D01*
X135785280Y-88010585D01*
X135825879Y-88036920D01*
X135876672Y-88049035D01*
X135918780Y-88053003D01*
X135994098Y-88053991D01*
X136047714Y-88041466D01*
X136081162Y-88022869D01*
X136133732Y-87981975D01*
X136170121Y-87937748D01*
X136193150Y-87882126D01*
X136205641Y-87807047D01*
X136210413Y-87704449D01*
X136210794Y-87652376D01*
X136209499Y-87589948D01*
X136091529Y-87589948D01*
X136090161Y-87623438D01*
X136086751Y-87628923D01*
X136064247Y-87621472D01*
X136015818Y-87601753D01*
X135951092Y-87573718D01*
X135937557Y-87567692D01*
X135855756Y-87526096D01*
X135810688Y-87489538D01*
X135800783Y-87455296D01*
X135824474Y-87420648D01*
X135844040Y-87405339D01*
X135914640Y-87374721D01*
X135980720Y-87379780D01*
X136036041Y-87417151D01*
X136074364Y-87483473D01*
X136086651Y-87536116D01*
X136091529Y-87589948D01*
X136209499Y-87589948D01*
X136208270Y-87530720D01*
X136198968Y-87440710D01*
X136180540Y-87375167D01*
X136150640Y-87326912D01*
X136106920Y-87288767D01*
X136087859Y-87276440D01*
X136001274Y-87244336D01*
X135906478Y-87242316D01*
X135814776Y-87267838D01*
X135814776Y-87267838D01*
G37*
X135814776Y-87267838D02*
X135737472Y-87318361D01*
X135700186Y-87363590D01*
X135670647Y-87445663D01*
X135668301Y-87510607D01*
X135673615Y-87597445D01*
X135873885Y-87685103D01*
X135971261Y-87729887D01*
X136034887Y-87765913D01*
X136067971Y-87797117D01*
X136073720Y-87827436D01*
X136055342Y-87860805D01*
X136035077Y-87882923D01*
X135976111Y-87918393D01*
X135911976Y-87920879D01*
X135853074Y-87893235D01*
X135809803Y-87838320D01*
X135802064Y-87818928D01*
X135764994Y-87758364D01*
X135722346Y-87732552D01*
X135663846Y-87710471D01*
X135663846Y-87794184D01*
X135669018Y-87851150D01*
X135689277Y-87899189D01*
X135731738Y-87954346D01*
X135738049Y-87961514D01*
X135785280Y-88010585D01*
X135825879Y-88036920D01*
X135876672Y-88049035D01*
X135918780Y-88053003D01*
X135994098Y-88053991D01*
X136047714Y-88041466D01*
X136081162Y-88022869D01*
X136133732Y-87981975D01*
X136170121Y-87937748D01*
X136193150Y-87882126D01*
X136205641Y-87807047D01*
X136210413Y-87704449D01*
X136210794Y-87652376D01*
X136209499Y-87589948D01*
X136091529Y-87589948D01*
X136090161Y-87623438D01*
X136086751Y-87628923D01*
X136064247Y-87621472D01*
X136015818Y-87601753D01*
X135951092Y-87573718D01*
X135937557Y-87567692D01*
X135855756Y-87526096D01*
X135810688Y-87489538D01*
X135800783Y-87455296D01*
X135824474Y-87420648D01*
X135844040Y-87405339D01*
X135914640Y-87374721D01*
X135980720Y-87379780D01*
X136036041Y-87417151D01*
X136074364Y-87483473D01*
X136086651Y-87536116D01*
X136091529Y-87589948D01*
X136209499Y-87589948D01*
X136208270Y-87530720D01*
X136198968Y-87440710D01*
X136180540Y-87375167D01*
X136150640Y-87326912D01*
X136106920Y-87288767D01*
X136087859Y-87276440D01*
X136001274Y-87244336D01*
X135906478Y-87242316D01*
X135814776Y-87267838D01*
G36*
X139920122Y-80907776D02*
G01*
X139814388Y-80908355D01*
X139737868Y-80909922D01*
X139685628Y-80912972D01*
X139652737Y-80917996D01*
X139634263Y-80925489D01*
X139625273Y-80935944D01*
X139620837Y-80949853D01*
X139620406Y-80951654D01*
X139613667Y-80984145D01*
X139601192Y-81048252D01*
X139584281Y-81137151D01*
X139564229Y-81244019D01*
X139542336Y-81362033D01*
X139541571Y-81366178D01*
X139519641Y-81481831D01*
X139499123Y-81584014D01*
X139481341Y-81666598D01*
X139467619Y-81723456D01*
X139459282Y-81748458D01*
X139458884Y-81748901D01*
X139434323Y-81761110D01*
X139383685Y-81781456D01*
X139317905Y-81805545D01*
X139317539Y-81805674D01*
X139234683Y-81836818D01*
X139137000Y-81876491D01*
X139044923Y-81916381D01*
X139040566Y-81918353D01*
X138890593Y-81986420D01*
X138558502Y-81759639D01*
X138456626Y-81690504D01*
X138364343Y-81628697D01*
X138286997Y-81577733D01*
X138229936Y-81541127D01*
X138198505Y-81522394D01*
X138195521Y-81521004D01*
X138172679Y-81527190D01*
X138130018Y-81557035D01*
X138065872Y-81611947D01*
X137978579Y-81693334D01*
X137889465Y-81779922D01*
X137803559Y-81865247D01*
X137726673Y-81943108D01*
X137663436Y-82008697D01*
X137618477Y-82057205D01*
X137596424Y-82083825D01*
X137595604Y-82085195D01*
X137593166Y-82103463D01*
X137602350Y-82133295D01*
X137625426Y-82178721D01*
X137664663Y-82243770D01*
X137722330Y-82332470D01*
X137799205Y-82446657D01*
X137867430Y-82547162D01*
X137928418Y-82637303D01*
X137978644Y-82711849D01*
X138014584Y-82765565D01*
X138032713Y-82793218D01*
X138033854Y-82795095D01*
X138031641Y-82821590D01*
X138014862Y-82873086D01*
X137986858Y-82939851D01*
X137976878Y-82961172D01*
X137933328Y-83056159D01*
X137886866Y-83163937D01*
X137849123Y-83257192D01*
X137821927Y-83326406D01*
X137800325Y-83379006D01*
X137787842Y-83406497D01*
X137786291Y-83408616D01*
X137763332Y-83412124D01*
X137709214Y-83421738D01*
X137631132Y-83436089D01*
X137536281Y-83453807D01*
X137431857Y-83473525D01*
X137325056Y-83493874D01*
X137223074Y-83513486D01*
X137133106Y-83530991D01*
X137062347Y-83545022D01*
X137017994Y-83554209D01*
X137007115Y-83556807D01*
X136995878Y-83563218D01*
X136987395Y-83577697D01*
X136981286Y-83605133D01*
X136977168Y-83650411D01*
X136974659Y-83718420D01*
X136973379Y-83814047D01*
X136972946Y-83942180D01*
X136972923Y-83994701D01*
X136972923Y-84421845D01*
X137075500Y-84442091D01*
X137132569Y-84453070D01*
X137217731Y-84469095D01*
X137320628Y-84488233D01*
X137430904Y-84508551D01*
X137461385Y-84514132D01*
X137563145Y-84533917D01*
X137651795Y-84553373D01*
X137719892Y-84570697D01*
X137759996Y-84584088D01*
X137766677Y-84588079D01*
X137783081Y-84616342D01*
X137806601Y-84671109D01*
X137832684Y-84741588D01*
X137837858Y-84756769D01*
X137872044Y-84850896D01*
X137914477Y-84957101D01*
X137956003Y-85052473D01*
X137956208Y-85052916D01*
X138025360Y-85202525D01*
X137570488Y-85871617D01*
X137862500Y-86164116D01*
X137950820Y-86251170D01*
X138031375Y-86327909D01*
X138099640Y-86390237D01*
X138151092Y-86434056D01*
X138181206Y-86455270D01*
X138185526Y-86456616D01*
X138210889Y-86446016D01*
X138262642Y-86416547D01*
X138335132Y-86371705D01*
X138422706Y-86314984D01*
X138517388Y-86251462D01*
X138613484Y-86186668D01*
X138699163Y-86130287D01*
X138768984Y-86085788D01*
X138817506Y-86056639D01*
X138839218Y-86046308D01*
X138865707Y-86055050D01*
X138915938Y-86078087D01*
X138979549Y-86110631D01*
X138986292Y-86114249D01*
X139071954Y-86157210D01*
X139130694Y-86178279D01*
X139167228Y-86178503D01*
X139186269Y-86158928D01*
X139186380Y-86158654D01*
X139195898Y-86135472D01*
X139218597Y-86080441D01*
X139252718Y-85997822D01*
X139296500Y-85891872D01*
X139348184Y-85766852D01*
X139406008Y-85627020D01*
X139462009Y-85491637D01*
X139523553Y-85342234D01*
X139580061Y-85203832D01*
X139629839Y-85080673D01*
X139671194Y-84977002D01*
X139702432Y-84897059D01*
X139721859Y-84845088D01*
X139727846Y-84825692D01*
X139712832Y-84803443D01*
X139673561Y-84767982D01*
X139621193Y-84728887D01*
X139472059Y-84605245D01*
X139355489Y-84463522D01*
X139272882Y-84306704D01*
X139225634Y-84137775D01*
X139215143Y-83959722D01*
X139222769Y-83877539D01*
X139264318Y-83707031D01*
X139335877Y-83556459D01*
X139433005Y-83427309D01*
X139551266Y-83321064D01*
X139686220Y-83239210D01*
X139833429Y-83183232D01*
X139988456Y-83154615D01*
X140146861Y-83154844D01*
X140304206Y-83185405D01*
X140456054Y-83247782D01*
X140597965Y-83343460D01*
X140657197Y-83397572D01*
X140770797Y-83536520D01*
X140849894Y-83688361D01*
X140895014Y-83848667D01*
X140906684Y-84013012D01*
X140885431Y-84176971D01*
X140831780Y-84336118D01*
X140746260Y-84486025D01*
X140629395Y-84622267D01*
X140498807Y-84728887D01*
X140444412Y-84769642D01*
X140405986Y-84804718D01*
X140392154Y-84825726D01*
X140399397Y-84848635D01*
X140419995Y-84903365D01*
X140452254Y-84985672D01*
X140494479Y-85091315D01*
X140544977Y-85216050D01*
X140602052Y-85355636D01*
X140658146Y-85491670D01*
X140720033Y-85641201D01*
X140777356Y-85779767D01*
X140828356Y-85903107D01*
X140871273Y-86006964D01*
X140904347Y-86087080D01*
X140925819Y-86139195D01*
X140933775Y-86158654D01*
X140952571Y-86178423D01*
X140988926Y-86178365D01*
X141047521Y-86157441D01*
X141133032Y-86114613D01*
X141133708Y-86114249D01*
X141198093Y-86081012D01*
X141250139Y-86056802D01*
X141279488Y-86046404D01*
X141280783Y-86046308D01*
X141302876Y-86056855D01*
X141351652Y-86086184D01*
X141421669Y-86130827D01*
X141507486Y-86187314D01*
X141602612Y-86251462D01*
X141699460Y-86316411D01*
X141786747Y-86372896D01*
X141858819Y-86417421D01*
X141910023Y-86446490D01*
X141934474Y-86456616D01*
X141956990Y-86443307D01*
X142002258Y-86406112D01*
X142065756Y-86349128D01*
X142142961Y-86276449D01*
X142229349Y-86192171D01*
X142257601Y-86164016D01*
X142549713Y-85871416D01*
X142327369Y-85545104D01*
X142259798Y-85444897D01*
X142200493Y-85354963D01*
X142152783Y-85280510D01*
X142119993Y-85226751D01*
X142105452Y-85198894D01*
X142105026Y-85196912D01*
X142112692Y-85170655D01*
X142133311Y-85117837D01*
X142163315Y-85047310D01*
X142184375Y-85000093D01*
X142223752Y-84909694D01*
X142260835Y-84818366D01*
X142289585Y-84741200D01*
X142297395Y-84717692D01*
X142319583Y-84654916D01*
X142341273Y-84606411D01*
X142353187Y-84588079D01*
X142379477Y-84576859D01*
X142436858Y-84560954D01*
X142517882Y-84542167D01*
X142615105Y-84522299D01*
X142658615Y-84514132D01*
X142769104Y-84493829D01*
X142875084Y-84474170D01*
X142966199Y-84457088D01*
X143032092Y-84444518D01*
X143044500Y-84442091D01*
X143147077Y-84421845D01*
X143147077Y-83994701D01*
X143146847Y-83854246D01*
X143145901Y-83747979D01*
X143143859Y-83671013D01*
X143140338Y-83618460D01*
X143134957Y-83585433D01*
X143127334Y-83567045D01*
X143117088Y-83558408D01*
X143112885Y-83556807D01*
X143087530Y-83551127D01*
X143031516Y-83539795D01*
X142952036Y-83524179D01*
X142856288Y-83505647D01*
X142751467Y-83485569D01*
X142644768Y-83465312D01*
X142543387Y-83446246D01*
X142454521Y-83429739D01*
X142385363Y-83417159D01*
X142343111Y-83409875D01*
X142333710Y-83408616D01*
X142325193Y-83391763D01*
X142306340Y-83346870D01*
X142280676Y-83282430D01*
X142270877Y-83257192D01*
X142231352Y-83159686D01*
X142184808Y-83051959D01*
X142143123Y-82961172D01*
X142112450Y-82891753D01*
X142092044Y-82834710D01*
X142085232Y-82799777D01*
X142086318Y-82795095D01*
X142100715Y-82772991D01*
X142133588Y-82723831D01*
X142181410Y-82652848D01*
X142240652Y-82565278D01*
X142307785Y-82466357D01*
X142321059Y-82446830D01*
X142398954Y-82331140D01*
X142456213Y-82243044D01*
X142495119Y-82178486D01*
X142517956Y-82133411D01*
X142527006Y-82103763D01*
X142524552Y-82085485D01*
X142524489Y-82085369D01*
X142505173Y-82061361D01*
X142462449Y-82014947D01*
X142400949Y-81950937D01*
X142325302Y-81874145D01*
X142240139Y-81789382D01*
X142230535Y-81779922D01*
X142123210Y-81675989D01*
X142040385Y-81599675D01*
X141980395Y-81549571D01*
X141941577Y-81524270D01*
X141924480Y-81521004D01*
X141899527Y-81535250D01*
X141847745Y-81568156D01*
X141774480Y-81616208D01*
X141685080Y-81675890D01*
X141584889Y-81743688D01*
X141561499Y-81759639D01*
X141229407Y-81986420D01*
X141079435Y-81918353D01*
X140988230Y-81878685D01*
X140890331Y-81838791D01*
X140806169Y-81806983D01*
X140802462Y-81805674D01*
X140736631Y-81781576D01*
X140685884Y-81761200D01*
X140661158Y-81748936D01*
X140661116Y-81748901D01*
X140653271Y-81726734D01*
X140639934Y-81672217D01*
X140622430Y-81591480D01*
X140602083Y-81490650D01*
X140580218Y-81375856D01*
X140578429Y-81366178D01*
X140556496Y-81247904D01*
X140536360Y-81140542D01*
X140519320Y-81050917D01*
X140506672Y-80985851D01*
X140499716Y-80952168D01*
X140499594Y-80951654D01*
X140495361Y-80937325D01*
X140487129Y-80926507D01*
X140469967Y-80918706D01*
X140438942Y-80913429D01*
X140389122Y-80910182D01*
X140315576Y-80908472D01*
X140213371Y-80907807D01*
X140077575Y-80907693D01*
X140060000Y-80907692D01*
X139920122Y-80907776D01*
X139920122Y-80907776D01*
G37*
X139920122Y-80907776D02*
X139814388Y-80908355D01*
X139737868Y-80909922D01*
X139685628Y-80912972D01*
X139652737Y-80917996D01*
X139634263Y-80925489D01*
X139625273Y-80935944D01*
X139620837Y-80949853D01*
X139620406Y-80951654D01*
X139613667Y-80984145D01*
X139601192Y-81048252D01*
X139584281Y-81137151D01*
X139564229Y-81244019D01*
X139542336Y-81362033D01*
X139541571Y-81366178D01*
X139519641Y-81481831D01*
X139499123Y-81584014D01*
X139481341Y-81666598D01*
X139467619Y-81723456D01*
X139459282Y-81748458D01*
X139458884Y-81748901D01*
X139434323Y-81761110D01*
X139383685Y-81781456D01*
X139317905Y-81805545D01*
X139317539Y-81805674D01*
X139234683Y-81836818D01*
X139137000Y-81876491D01*
X139044923Y-81916381D01*
X139040566Y-81918353D01*
X138890593Y-81986420D01*
X138558502Y-81759639D01*
X138456626Y-81690504D01*
X138364343Y-81628697D01*
X138286997Y-81577733D01*
X138229936Y-81541127D01*
X138198505Y-81522394D01*
X138195521Y-81521004D01*
X138172679Y-81527190D01*
X138130018Y-81557035D01*
X138065872Y-81611947D01*
X137978579Y-81693334D01*
X137889465Y-81779922D01*
X137803559Y-81865247D01*
X137726673Y-81943108D01*
X137663436Y-82008697D01*
X137618477Y-82057205D01*
X137596424Y-82083825D01*
X137595604Y-82085195D01*
X137593166Y-82103463D01*
X137602350Y-82133295D01*
X137625426Y-82178721D01*
X137664663Y-82243770D01*
X137722330Y-82332470D01*
X137799205Y-82446657D01*
X137867430Y-82547162D01*
X137928418Y-82637303D01*
X137978644Y-82711849D01*
X138014584Y-82765565D01*
X138032713Y-82793218D01*
X138033854Y-82795095D01*
X138031641Y-82821590D01*
X138014862Y-82873086D01*
X137986858Y-82939851D01*
X137976878Y-82961172D01*
X137933328Y-83056159D01*
X137886866Y-83163937D01*
X137849123Y-83257192D01*
X137821927Y-83326406D01*
X137800325Y-83379006D01*
X137787842Y-83406497D01*
X137786291Y-83408616D01*
X137763332Y-83412124D01*
X137709214Y-83421738D01*
X137631132Y-83436089D01*
X137536281Y-83453807D01*
X137431857Y-83473525D01*
X137325056Y-83493874D01*
X137223074Y-83513486D01*
X137133106Y-83530991D01*
X137062347Y-83545022D01*
X137017994Y-83554209D01*
X137007115Y-83556807D01*
X136995878Y-83563218D01*
X136987395Y-83577697D01*
X136981286Y-83605133D01*
X136977168Y-83650411D01*
X136974659Y-83718420D01*
X136973379Y-83814047D01*
X136972946Y-83942180D01*
X136972923Y-83994701D01*
X136972923Y-84421845D01*
X137075500Y-84442091D01*
X137132569Y-84453070D01*
X137217731Y-84469095D01*
X137320628Y-84488233D01*
X137430904Y-84508551D01*
X137461385Y-84514132D01*
X137563145Y-84533917D01*
X137651795Y-84553373D01*
X137719892Y-84570697D01*
X137759996Y-84584088D01*
X137766677Y-84588079D01*
X137783081Y-84616342D01*
X137806601Y-84671109D01*
X137832684Y-84741588D01*
X137837858Y-84756769D01*
X137872044Y-84850896D01*
X137914477Y-84957101D01*
X137956003Y-85052473D01*
X137956208Y-85052916D01*
X138025360Y-85202525D01*
X137570488Y-85871617D01*
X137862500Y-86164116D01*
X137950820Y-86251170D01*
X138031375Y-86327909D01*
X138099640Y-86390237D01*
X138151092Y-86434056D01*
X138181206Y-86455270D01*
X138185526Y-86456616D01*
X138210889Y-86446016D01*
X138262642Y-86416547D01*
X138335132Y-86371705D01*
X138422706Y-86314984D01*
X138517388Y-86251462D01*
X138613484Y-86186668D01*
X138699163Y-86130287D01*
X138768984Y-86085788D01*
X138817506Y-86056639D01*
X138839218Y-86046308D01*
X138865707Y-86055050D01*
X138915938Y-86078087D01*
X138979549Y-86110631D01*
X138986292Y-86114249D01*
X139071954Y-86157210D01*
X139130694Y-86178279D01*
X139167228Y-86178503D01*
X139186269Y-86158928D01*
X139186380Y-86158654D01*
X139195898Y-86135472D01*
X139218597Y-86080441D01*
X139252718Y-85997822D01*
X139296500Y-85891872D01*
X139348184Y-85766852D01*
X139406008Y-85627020D01*
X139462009Y-85491637D01*
X139523553Y-85342234D01*
X139580061Y-85203832D01*
X139629839Y-85080673D01*
X139671194Y-84977002D01*
X139702432Y-84897059D01*
X139721859Y-84845088D01*
X139727846Y-84825692D01*
X139712832Y-84803443D01*
X139673561Y-84767982D01*
X139621193Y-84728887D01*
X139472059Y-84605245D01*
X139355489Y-84463522D01*
X139272882Y-84306704D01*
X139225634Y-84137775D01*
X139215143Y-83959722D01*
X139222769Y-83877539D01*
X139264318Y-83707031D01*
X139335877Y-83556459D01*
X139433005Y-83427309D01*
X139551266Y-83321064D01*
X139686220Y-83239210D01*
X139833429Y-83183232D01*
X139988456Y-83154615D01*
X140146861Y-83154844D01*
X140304206Y-83185405D01*
X140456054Y-83247782D01*
X140597965Y-83343460D01*
X140657197Y-83397572D01*
X140770797Y-83536520D01*
X140849894Y-83688361D01*
X140895014Y-83848667D01*
X140906684Y-84013012D01*
X140885431Y-84176971D01*
X140831780Y-84336118D01*
X140746260Y-84486025D01*
X140629395Y-84622267D01*
X140498807Y-84728887D01*
X140444412Y-84769642D01*
X140405986Y-84804718D01*
X140392154Y-84825726D01*
X140399397Y-84848635D01*
X140419995Y-84903365D01*
X140452254Y-84985672D01*
X140494479Y-85091315D01*
X140544977Y-85216050D01*
X140602052Y-85355636D01*
X140658146Y-85491670D01*
X140720033Y-85641201D01*
X140777356Y-85779767D01*
X140828356Y-85903107D01*
X140871273Y-86006964D01*
X140904347Y-86087080D01*
X140925819Y-86139195D01*
X140933775Y-86158654D01*
X140952571Y-86178423D01*
X140988926Y-86178365D01*
X141047521Y-86157441D01*
X141133032Y-86114613D01*
X141133708Y-86114249D01*
X141198093Y-86081012D01*
X141250139Y-86056802D01*
X141279488Y-86046404D01*
X141280783Y-86046308D01*
X141302876Y-86056855D01*
X141351652Y-86086184D01*
X141421669Y-86130827D01*
X141507486Y-86187314D01*
X141602612Y-86251462D01*
X141699460Y-86316411D01*
X141786747Y-86372896D01*
X141858819Y-86417421D01*
X141910023Y-86446490D01*
X141934474Y-86456616D01*
X141956990Y-86443307D01*
X142002258Y-86406112D01*
X142065756Y-86349128D01*
X142142961Y-86276449D01*
X142229349Y-86192171D01*
X142257601Y-86164016D01*
X142549713Y-85871416D01*
X142327369Y-85545104D01*
X142259798Y-85444897D01*
X142200493Y-85354963D01*
X142152783Y-85280510D01*
X142119993Y-85226751D01*
X142105452Y-85198894D01*
X142105026Y-85196912D01*
X142112692Y-85170655D01*
X142133311Y-85117837D01*
X142163315Y-85047310D01*
X142184375Y-85000093D01*
X142223752Y-84909694D01*
X142260835Y-84818366D01*
X142289585Y-84741200D01*
X142297395Y-84717692D01*
X142319583Y-84654916D01*
X142341273Y-84606411D01*
X142353187Y-84588079D01*
X142379477Y-84576859D01*
X142436858Y-84560954D01*
X142517882Y-84542167D01*
X142615105Y-84522299D01*
X142658615Y-84514132D01*
X142769104Y-84493829D01*
X142875084Y-84474170D01*
X142966199Y-84457088D01*
X143032092Y-84444518D01*
X143044500Y-84442091D01*
X143147077Y-84421845D01*
X143147077Y-83994701D01*
X143146847Y-83854246D01*
X143145901Y-83747979D01*
X143143859Y-83671013D01*
X143140338Y-83618460D01*
X143134957Y-83585433D01*
X143127334Y-83567045D01*
X143117088Y-83558408D01*
X143112885Y-83556807D01*
X143087530Y-83551127D01*
X143031516Y-83539795D01*
X142952036Y-83524179D01*
X142856288Y-83505647D01*
X142751467Y-83485569D01*
X142644768Y-83465312D01*
X142543387Y-83446246D01*
X142454521Y-83429739D01*
X142385363Y-83417159D01*
X142343111Y-83409875D01*
X142333710Y-83408616D01*
X142325193Y-83391763D01*
X142306340Y-83346870D01*
X142280676Y-83282430D01*
X142270877Y-83257192D01*
X142231352Y-83159686D01*
X142184808Y-83051959D01*
X142143123Y-82961172D01*
X142112450Y-82891753D01*
X142092044Y-82834710D01*
X142085232Y-82799777D01*
X142086318Y-82795095D01*
X142100715Y-82772991D01*
X142133588Y-82723831D01*
X142181410Y-82652848D01*
X142240652Y-82565278D01*
X142307785Y-82466357D01*
X142321059Y-82446830D01*
X142398954Y-82331140D01*
X142456213Y-82243044D01*
X142495119Y-82178486D01*
X142517956Y-82133411D01*
X142527006Y-82103763D01*
X142524552Y-82085485D01*
X142524489Y-82085369D01*
X142505173Y-82061361D01*
X142462449Y-82014947D01*
X142400949Y-81950937D01*
X142325302Y-81874145D01*
X142240139Y-81789382D01*
X142230535Y-81779922D01*
X142123210Y-81675989D01*
X142040385Y-81599675D01*
X141980395Y-81549571D01*
X141941577Y-81524270D01*
X141924480Y-81521004D01*
X141899527Y-81535250D01*
X141847745Y-81568156D01*
X141774480Y-81616208D01*
X141685080Y-81675890D01*
X141584889Y-81743688D01*
X141561499Y-81759639D01*
X141229407Y-81986420D01*
X141079435Y-81918353D01*
X140988230Y-81878685D01*
X140890331Y-81838791D01*
X140806169Y-81806983D01*
X140802462Y-81805674D01*
X140736631Y-81781576D01*
X140685884Y-81761200D01*
X140661158Y-81748936D01*
X140661116Y-81748901D01*
X140653271Y-81726734D01*
X140639934Y-81672217D01*
X140622430Y-81591480D01*
X140602083Y-81490650D01*
X140580218Y-81375856D01*
X140578429Y-81366178D01*
X140556496Y-81247904D01*
X140536360Y-81140542D01*
X140519320Y-81050917D01*
X140506672Y-80985851D01*
X140499716Y-80952168D01*
X140499594Y-80951654D01*
X140495361Y-80937325D01*
X140487129Y-80926507D01*
X140469967Y-80918706D01*
X140438942Y-80913429D01*
X140389122Y-80910182D01*
X140315576Y-80908472D01*
X140213371Y-80907807D01*
X140077575Y-80907693D01*
X140060000Y-80907692D01*
X139920122Y-80907776D01*
D14*
X137660000Y-53420000D02*
G75*
G03X137660000Y-53420000I-3000000J0D01*
G01*
D15*
X135160000Y-53420000D02*
G75*
G03X135160000Y-53420000I-500000J0D01*
G01*
M02*
