M48
; DRILL file {KiCad (5.1.2)-1} date 27.7.2019 14:33:23
; FORMAT={-:-/ absolute / metric / decimal}
; #@! TF.CreationDate,2019-07-27T14:33:23+02:00
; #@! TF.GenerationSoftware,Kicad,Pcbnew,(5.1.2)-1
; #@! TF.FileFunction,Plated,1,2,PTH
FMAT,2
METRIC
T1C0.300
T2C0.550
T3C0.800
T4C0.850
T5C0.900
T6C1.000
T7C3.200
%
G90
G05
T1
X73.66Y-71.42
X73.66Y-72.82
X73.76Y-70.22
X73.83Y-67.22
X73.86Y-65.82
X73.87Y-64.42
X74.06Y-58.62
X74.06Y-74.82
X74.06Y-77.42
X74.06Y-80.22
X74.26Y-49.82
X74.26Y-52.22
X75.06Y-72.82
X75.26Y-70.22
X75.26Y-71.42
X75.46Y-64.42
X75.46Y-65.82
X75.46Y-67.22
X76.06Y-58.62
X76.46Y-49.82
X76.46Y-52.22
X76.46Y-68.42
X76.66Y-70.02
X76.86Y-74.82
X76.86Y-77.42
X76.86Y-80.22
X77.06Y-64.4
X77.06Y-65.82
X78.06Y-58.62
X78.86Y-49.82
X78.86Y-52.22
X79.66Y-55.42
X79.66Y-57.02
X79.66Y-58.62
X79.86Y-74.82
X79.86Y-77.42
X80.06Y-65.82
X80.06Y-66.82
X80.06Y-80.22
X81.26Y-49.82
X81.26Y-52.22
X81.66Y-47.62
X81.86Y-41.22
X81.86Y-43.22
X81.86Y-45.42
X81.86Y-55.42
X81.86Y-57.02
X81.86Y-58.62
X82.25Y-65.27
X82.66Y-75.44
X82.66Y-83.22
X82.66Y-85.22
X82.66Y-87.42
X82.68Y-69.37
X83.4Y-69.71
X83.96Y-75.33
X84.04Y-48.82
X84.06Y-41.22
X84.06Y-43.22
X84.06Y-45.42
X84.06Y-50.02
X84.06Y-52.42
X84.06Y-53.62
X84.07Y-51.22
X84.14Y-79.47
X84.15Y-76.24
X84.26Y-57.02
X84.26Y-58.62
X84.26Y-69.52
X84.26Y-70.32
X84.26Y-71.22
X84.26Y-72.02
X84.89Y-66.34
X85.06Y-83.22
X85.26Y-51.22
X85.26Y-52.42
X85.26Y-53.62
X85.26Y-54.82
X85.26Y-85.22
X85.4Y-69.52
X85.45Y-75.33
X85.46Y-70.32
X86.46Y-51.22
X86.46Y-52.42
X86.46Y-53.62
X86.46Y-54.82
X86.46Y-57.02
X86.46Y-58.62
X86.66Y-69.52
X86.66Y-70.32
X87.09Y-75.38
X87.66Y-83.22
X87.66Y-85.22
X87.86Y-54.82
X88.0Y-48.14
X88.37Y-75.38
X89.26Y-54.82
X90.46Y-54.82
X90.46Y-57.82
X90.46Y-83.22
X90.66Y-61.22
X90.66Y-63.22
X90.66Y-65.22
X90.66Y-67.22
X91.02Y-52.21
X91.06Y-56.22
X91.727Y-57.82
X91.86Y-54.82
X91.86Y-61.22
X91.86Y-63.22
X92.06Y-65.22
X92.06Y-67.22
X92.46Y-56.22
X92.81Y-82.25
X92.86Y-86.62
X92.86Y-88.42
X92.993Y-57.82
X93.0Y-48.35
X93.06Y-54.82
X93.06Y-61.22
X93.06Y-63.22
X93.46Y-65.22
X93.46Y-67.22
X93.46Y-67.22
X93.46Y-69.22
X93.46Y-69.22
X93.46Y-71.22
X93.46Y-71.22
X93.86Y-51.02
X93.86Y-56.22
X94.2Y-53.41
X94.26Y-54.82
X94.26Y-57.82
X94.4Y-82.27
X94.86Y-51.02
X95.06Y-65.22
X95.06Y-67.22
X95.06Y-67.22
X95.06Y-69.22
X95.06Y-69.22
X95.06Y-71.22
X95.06Y-71.22
X95.06Y-86.62
X95.26Y-88.42
X95.66Y-72.82
X95.66Y-74.82
X95.66Y-77.02
X95.66Y-79.22
X95.86Y-51.02
X96.46Y-52.22
X96.46Y-53.42
X96.46Y-54.62
X96.46Y-67.82
X96.46Y-69.22
X96.59Y-60.91
X96.86Y-51.02
X97.46Y-84.92
X97.66Y-52.22
X97.66Y-53.42
X97.66Y-54.62
X97.86Y-50.22
X97.86Y-51.02
X98.26Y-67.82
X98.26Y-69.22
X98.76Y-84.92
X98.86Y-50.22
X98.86Y-51.02
X98.86Y-52.22
X98.86Y-53.42
X98.86Y-54.62
X98.86Y-78.9
X99.16Y-82.62
X99.7Y-65.16
X99.86Y-42.22
X99.86Y-43.62
X99.86Y-45.22
X99.86Y-79.42
X100.06Y-67.82
X100.06Y-69.22
X100.16Y-84.92
X100.6Y-72.33
X100.76Y-82.62
X100.84Y-51.42
X100.86Y-46.62
X100.86Y-47.82
X100.86Y-50.16
X100.86Y-52.62
X100.86Y-53.82
X100.88Y-49.0
X101.26Y-42.22
X101.26Y-43.62
X101.26Y-45.22
X101.46Y-83.92
X101.46Y-84.92
X101.86Y-67.82
X101.86Y-69.22
X101.86Y-73.42
X101.86Y-74.82
X101.86Y-76.42
X101.88Y-61.36
X102.06Y-51.42
X102.06Y-52.62
X102.06Y-53.82
X102.66Y-83.92
X102.66Y-84.92
X103.07Y-71.86
X103.18Y-66.31
X103.26Y-52.62
X103.26Y-53.82
X103.28Y-51.42
X103.46Y-74.82
X103.46Y-76.42
X103.54Y-73.42
X103.66Y-67.82
X103.66Y-69.22
X103.96Y-84.92
X104.84Y-47.86
X104.86Y-77.82
X105.05Y-71.88
X105.26Y-73.42
X105.26Y-74.82
X105.26Y-76.42
X105.26Y-84.92
X105.46Y-64.22
X105.46Y-65.22
X105.96Y-85.72
X106.46Y-77.82
X106.48Y-81.64
X106.56Y-84.92
X106.66Y-73.42
X106.76Y-76.22
X106.79Y-75.41
X106.81Y-74.61
X106.86Y-63.22
X106.86Y-64.22
X106.86Y-65.22
X107.038Y-81.02
X107.81Y-52.01
X107.86Y-63.22
X108.26Y-64.22
X108.26Y-65.22
X109.17Y-66.67
X109.66Y-64.22
X109.66Y-65.22
X109.66Y-78.02
X109.66Y-79.62
X109.66Y-81.02
X109.66Y-82.62
X109.99Y-48.34
X110.26Y-55.42
X110.26Y-56.62
X110.26Y-57.82
X110.5Y-74.65
X110.56Y-75.74
X110.86Y-77.42
X110.86Y-78.82
X110.86Y-80.22
X110.86Y-81.62
X110.86Y-83.02
X110.86Y-84.62
X110.86Y-86.02
X110.86Y-87.42
X111.05Y-53.19
X111.15Y-75.19
X111.66Y-55.42
X111.66Y-56.62
X111.66Y-57.82
X111.675Y-60.525
X111.86Y-61.82
X111.86Y-63.02
X111.86Y-64.22
X111.86Y-65.22
X111.86Y-66.42
X113.06Y-55.42
X113.06Y-56.62
X113.26Y-63.02
X113.26Y-64.22
X113.26Y-65.22
X113.26Y-66.42
X113.66Y-51.82
X113.66Y-53.22
X114.26Y-55.42
X114.26Y-56.62
X115.06Y-50.62
X115.06Y-51.82
X115.06Y-53.22
X115.635Y-64.895
X116.26Y-51.82
X116.26Y-53.22
X116.26Y-54.62
X116.26Y-56.02
X116.26Y-57.22
X116.26Y-64.445
X116.33Y-48.42
X116.33Y-49.62
X116.34Y-50.62
X116.56Y-77.52
X116.66Y-42.22
X116.66Y-43.24
X116.66Y-44.22
X116.86Y-72.14
X116.96Y-84.72
X117.16Y-76.92
X117.23Y-56.41
X117.25Y-57.91
X117.26Y-45.02
X117.26Y-46.02
X117.56Y-77.52
X117.67Y-67.43
X117.86Y-42.22
X117.86Y-44.22
X117.87Y-43.24
X117.87Y-70.92
X118.06Y-47.02
X118.06Y-47.82
X118.06Y-48.62
X118.06Y-76.92
X118.26Y-84.745
X118.45Y-62.44
X118.47Y-61.64
X118.5Y-60.65
X118.53Y-63.67
X118.56Y-77.52
X118.66Y-45.02
X118.66Y-46.02
X118.76Y-70.91
X118.96Y-55.43
X119.06Y-47.02
X119.06Y-47.82
X119.06Y-54.36
X119.06Y-76.92
X119.08Y-53.33
X119.12Y-52.32
X119.43Y-62.81
X119.51Y-84.72
X119.56Y-76.22
X119.67Y-63.69
X120.1Y-60.8
X120.1Y-61.9
X120.14Y-54.15
X120.17Y-52.32
X120.19Y-53.26
X120.26Y-47.02
X120.26Y-47.82
X120.75Y-62.86
X120.82Y-76.0
X121.05Y-66.9
X121.06Y-66.1
X121.11Y-84.245
X121.46Y-47.02
X121.46Y-47.82
X121.5Y-60.8
X121.5Y-61.9
X121.54Y-63.54
X121.88Y-74.69
X121.9Y-75.92
X121.96Y-84.245
X122.47Y-63.37
X122.735Y-84.245
X122.775Y-61.65
X123.04Y-59.21
X123.06Y-63.85
X123.06Y-69.02
X123.2Y-62.45
X123.66Y-47.22
X124.26Y-69.02
X124.28Y-65.53
X124.46Y-86.62
X124.46Y-88.02
X125.03Y-58.04
X125.06Y-53.22
X125.26Y-47.22
X125.46Y-69.02
X125.46Y-70.02
X125.46Y-71.02
X125.66Y-86.62
X125.66Y-88.02
X126.01Y-65.43
X126.06Y-79.42
X126.06Y-80.82
X126.06Y-82.22
X126.06Y-83.62
X126.06Y-85.02
X126.25Y-61.02
X126.26Y-61.82
X126.66Y-69.02
X126.66Y-70.02
X126.66Y-71.02
X127.06Y-40.62
X127.06Y-42.82
X127.06Y-44.42
X127.06Y-45.82
X127.06Y-47.22
X127.06Y-64.82
X127.46Y-61.02
X127.46Y-61.82
X127.66Y-65.42
X127.86Y-69.02
X127.86Y-70.02
X127.86Y-71.02
X127.86Y-72.22
X127.86Y-73.42
X127.86Y-74.82
X127.86Y-76.22
X127.86Y-77.82
X127.86Y-79.42
X127.86Y-80.82
X127.86Y-82.22
X127.86Y-83.62
X127.86Y-85.02
X128.26Y-64.79
X128.66Y-61.02
X128.66Y-61.82
X129.46Y-40.62
X129.46Y-42.82
X129.46Y-44.42
X130.46Y-82.81
X130.47Y-84.22
X130.5Y-81.4
X130.53Y-79.93
X130.54Y-78.61
X130.62Y-77.2
X130.66Y-85.62
X131.86Y-62.62
X131.86Y-63.82
X131.86Y-65.02
X131.86Y-66.22
X131.86Y-67.42
X131.86Y-85.62
X132.06Y-40.62
X132.06Y-42.82
X132.06Y-44.42
X133.06Y-85.62
X134.26Y-62.62
X134.26Y-63.82
X134.26Y-65.02
X134.26Y-66.22
X134.26Y-67.42
X134.26Y-85.62
X134.26Y-86.82
X134.26Y-88.02
X134.46Y-40.62
X134.46Y-42.82
X134.46Y-44.42
X135.45Y-84.2
X135.46Y-85.62
X135.46Y-86.82
X135.46Y-88.02
X135.52Y-61.2
X136.66Y-62.62
X136.66Y-63.82
X136.66Y-65.02
X136.66Y-66.22
X136.66Y-67.42
X136.66Y-85.62
X136.66Y-86.82
X136.66Y-88.02
X136.86Y-40.62
X136.86Y-42.82
X136.86Y-44.42
X137.86Y-85.62
X137.86Y-86.82
X137.86Y-88.02
X139.06Y-62.62
X139.06Y-63.82
X139.06Y-65.02
X139.06Y-66.22
X139.06Y-67.42
X139.06Y-85.62
X139.06Y-86.82
X139.06Y-88.02
X139.26Y-40.62
X139.26Y-42.82
X139.26Y-44.42
X140.28Y-77.47
X140.3Y-75.83
X140.3Y-76.6
X140.76Y-78.88
X141.01Y-73.6
X141.2Y-53.64
X141.21Y-58.31
X141.23Y-81.4
X141.26Y-41.02
X141.26Y-42.62
X141.26Y-44.42
X141.26Y-46.02
X141.42Y-78.31
X141.43Y-80.2
X141.57Y-61.2
X141.63Y-59.15
X141.63Y-59.95
X141.66Y-79.3
X141.86Y-83.22
X141.86Y-84.82
X141.86Y-86.62
X141.86Y-88.22
X141.88Y-73.56
X141.94Y-57.78
X142.04Y-56.04
X142.06Y-62.62
X142.06Y-63.82
X142.06Y-65.02
X142.06Y-66.22
X143.66Y-41.02
X143.66Y-42.62
X143.66Y-44.42
X143.66Y-46.02
X144.26Y-83.22
X144.26Y-84.82
X144.26Y-86.62
X144.26Y-88.22
X144.46Y-62.62
X144.46Y-63.82
X144.46Y-65.02
X144.46Y-66.22
X144.86Y-53.42
X144.86Y-73.62
X145.66Y-53.42
X145.66Y-73.62
X146.06Y-41.02
X146.06Y-42.62
X146.06Y-44.42
X146.06Y-46.02
X146.46Y-53.42
X146.46Y-73.62
X146.46Y-78.62
X146.46Y-80.02
X146.46Y-81.42
X146.66Y-48.82
X146.66Y-50.42
X146.66Y-52.22
X146.66Y-83.22
X146.66Y-84.82
X146.66Y-86.62
X146.66Y-88.22
X146.86Y-58.82
X146.86Y-60.02
X146.86Y-61.42
X146.86Y-62.62
X146.86Y-63.82
X146.86Y-65.02
X146.86Y-66.22
X146.86Y-67.62
X146.86Y-68.82
X146.86Y-70.02
X146.86Y-71.22
X146.86Y-72.42
X147.26Y-53.42
X147.26Y-73.62
X148.06Y-53.42
X148.06Y-73.62
X148.46Y-41.02
X148.46Y-48.82
X148.46Y-50.42
X148.46Y-52.22
X148.66Y-78.62
X148.66Y-80.02
X148.66Y-81.42
X148.66Y-88.22
X148.86Y-53.42
X148.86Y-73.62
X149.26Y-58.82
X149.26Y-60.02
X149.26Y-61.42
X149.26Y-62.62
X149.26Y-63.82
X149.26Y-65.02
X149.26Y-66.22
X149.26Y-67.62
X149.26Y-68.82
X149.26Y-70.02
X149.26Y-71.22
X149.26Y-72.42
X149.66Y-53.42
X149.66Y-56.42
X149.66Y-73.62
X149.66Y-76.42
X150.46Y-53.42
X150.46Y-56.42
X150.46Y-73.62
X150.46Y-76.42
X151.26Y-53.42
X151.26Y-56.42
X151.26Y-73.62
X151.26Y-76.42
X152.06Y-53.42
X152.06Y-56.42
X152.06Y-73.62
X152.06Y-76.42
X152.86Y-53.42
X152.86Y-56.42
X152.86Y-73.62
X152.86Y-76.42
X153.66Y-53.42
X153.66Y-56.42
X153.66Y-73.62
X153.66Y-76.42
X154.46Y-53.42
X154.46Y-56.42
X154.46Y-73.62
X154.46Y-76.42
X155.26Y-53.42
X155.26Y-56.42
X155.26Y-73.62
X155.26Y-76.42
T3
X77.5Y-62.5
X77.5Y-67.5
T5
X142.6Y-70.8
X145.14Y-70.8
X75.8Y-54.0
X78.34Y-54.0
X142.6Y-50.8
X145.14Y-50.8
T6
X112.8Y-87.59
X115.34Y-87.59
X117.88Y-87.59
X120.42Y-87.59
X122.96Y-87.59
X85.92Y-87.4
X88.46Y-87.4
X91.0Y-87.4
X97.2Y-87.4
X99.74Y-87.4
X102.28Y-87.4
X104.82Y-87.4
X107.36Y-87.4
T7
X78.0Y-45.0
X151.0Y-85.0
X151.0Y-45.0
X78.0Y-85.0
T2
G00X75.125Y-61.125
M15
G01X74.475Y-61.125
M16
G05
G00X75.125Y-68.875
M15
G01X74.475Y-68.875
M16
G05
T4
G00X78.875Y-61.275
M15
G01X78.325Y-61.275
M16
G05
G00X78.875Y-68.725
M15
G01X78.325Y-68.725
M16
G05
T0
M30
