G04 #@! TF.GenerationSoftware,KiCad,Pcbnew,(5.1.2)-1*
G04 #@! TF.CreationDate,2019-07-27T14:33:51+02:00*
G04 #@! TF.ProjectId,arbitrary_func_gen,61726269-7472-4617-9279-5f66756e635f,REV1.0*
G04 #@! TF.SameCoordinates,Original*
G04 #@! TF.FileFunction,Legend,Top*
G04 #@! TF.FilePolarity,Positive*
%FSLAX46Y46*%
G04 Gerber Fmt 4.6, Leading zero omitted, Abs format (unit mm)*
G04 Created by KiCad (PCBNEW (5.1.2)-1) date 2019-07-27 14:33:51*
%MOMM*%
%LPD*%
G04 APERTURE LIST*
%ADD10C,0.150000*%
%ADD11C,0.500000*%
%ADD12C,0.100000*%
%ADD13C,0.120000*%
G04 APERTURE END LIST*
D10*
X84645714Y-84672380D02*
X84645714Y-85481904D01*
X84693333Y-85577142D01*
X84740952Y-85624761D01*
X84836190Y-85672380D01*
X85026666Y-85672380D01*
X85121904Y-85624761D01*
X85169523Y-85577142D01*
X85217142Y-85481904D01*
X85217142Y-84672380D01*
X85645714Y-85386666D02*
X86121904Y-85386666D01*
X85550476Y-85672380D02*
X85883809Y-84672380D01*
X86217142Y-85672380D01*
X87121904Y-85672380D02*
X86788571Y-85196190D01*
X86550476Y-85672380D02*
X86550476Y-84672380D01*
X86931428Y-84672380D01*
X87026666Y-84720000D01*
X87074285Y-84767619D01*
X87121904Y-84862857D01*
X87121904Y-85005714D01*
X87074285Y-85100952D01*
X87026666Y-85148571D01*
X86931428Y-85196190D01*
X86550476Y-85196190D01*
X87407619Y-84672380D02*
X87979047Y-84672380D01*
X87693333Y-85672380D02*
X87693333Y-84672380D01*
X89502857Y-85672380D02*
X89502857Y-84672380D01*
X89502857Y-85624761D02*
X89407619Y-85672380D01*
X89217142Y-85672380D01*
X89121904Y-85624761D01*
X89074285Y-85577142D01*
X89026666Y-85481904D01*
X89026666Y-85196190D01*
X89074285Y-85100952D01*
X89121904Y-85053333D01*
X89217142Y-85005714D01*
X89407619Y-85005714D01*
X89502857Y-85053333D01*
X90360000Y-85624761D02*
X90264761Y-85672380D01*
X90074285Y-85672380D01*
X89979047Y-85624761D01*
X89931428Y-85529523D01*
X89931428Y-85148571D01*
X89979047Y-85053333D01*
X90074285Y-85005714D01*
X90264761Y-85005714D01*
X90360000Y-85053333D01*
X90407619Y-85148571D01*
X90407619Y-85243809D01*
X89931428Y-85339047D01*
X90836190Y-85672380D02*
X90836190Y-84672380D01*
X90836190Y-85053333D02*
X90931428Y-85005714D01*
X91121904Y-85005714D01*
X91217142Y-85053333D01*
X91264761Y-85100952D01*
X91312380Y-85196190D01*
X91312380Y-85481904D01*
X91264761Y-85577142D01*
X91217142Y-85624761D01*
X91121904Y-85672380D01*
X90931428Y-85672380D01*
X90836190Y-85624761D01*
X92169523Y-85005714D02*
X92169523Y-85672380D01*
X91740952Y-85005714D02*
X91740952Y-85529523D01*
X91788571Y-85624761D01*
X91883809Y-85672380D01*
X92026666Y-85672380D01*
X92121904Y-85624761D01*
X92169523Y-85577142D01*
X93074285Y-85005714D02*
X93074285Y-85815238D01*
X93026666Y-85910476D01*
X92979047Y-85958095D01*
X92883809Y-86005714D01*
X92740952Y-86005714D01*
X92645714Y-85958095D01*
X93074285Y-85624761D02*
X92979047Y-85672380D01*
X92788571Y-85672380D01*
X92693333Y-85624761D01*
X92645714Y-85577142D01*
X92598095Y-85481904D01*
X92598095Y-85196190D01*
X92645714Y-85100952D01*
X92693333Y-85053333D01*
X92788571Y-85005714D01*
X92979047Y-85005714D01*
X93074285Y-85053333D01*
X111817142Y-85624761D02*
X111960000Y-85672380D01*
X112198095Y-85672380D01*
X112293333Y-85624761D01*
X112340952Y-85577142D01*
X112388571Y-85481904D01*
X112388571Y-85386666D01*
X112340952Y-85291428D01*
X112293333Y-85243809D01*
X112198095Y-85196190D01*
X112007619Y-85148571D01*
X111912380Y-85100952D01*
X111864761Y-85053333D01*
X111817142Y-84958095D01*
X111817142Y-84862857D01*
X111864761Y-84767619D01*
X111912380Y-84720000D01*
X112007619Y-84672380D01*
X112245714Y-84672380D01*
X112388571Y-84720000D01*
X112817142Y-85672380D02*
X112817142Y-84672380D01*
X113198095Y-84672380D01*
X113293333Y-84720000D01*
X113340952Y-84767619D01*
X113388571Y-84862857D01*
X113388571Y-85005714D01*
X113340952Y-85100952D01*
X113293333Y-85148571D01*
X113198095Y-85196190D01*
X112817142Y-85196190D01*
X113817142Y-85672380D02*
X113817142Y-84672380D01*
X115483809Y-85672380D02*
X115483809Y-84672380D01*
X115483809Y-85624761D02*
X115388571Y-85672380D01*
X115198095Y-85672380D01*
X115102857Y-85624761D01*
X115055238Y-85577142D01*
X115007619Y-85481904D01*
X115007619Y-85196190D01*
X115055238Y-85100952D01*
X115102857Y-85053333D01*
X115198095Y-85005714D01*
X115388571Y-85005714D01*
X115483809Y-85053333D01*
X116340952Y-85624761D02*
X116245714Y-85672380D01*
X116055238Y-85672380D01*
X115960000Y-85624761D01*
X115912380Y-85529523D01*
X115912380Y-85148571D01*
X115960000Y-85053333D01*
X116055238Y-85005714D01*
X116245714Y-85005714D01*
X116340952Y-85053333D01*
X116388571Y-85148571D01*
X116388571Y-85243809D01*
X115912380Y-85339047D01*
X116817142Y-85672380D02*
X116817142Y-84672380D01*
X116817142Y-85053333D02*
X116912380Y-85005714D01*
X117102857Y-85005714D01*
X117198095Y-85053333D01*
X117245714Y-85100952D01*
X117293333Y-85196190D01*
X117293333Y-85481904D01*
X117245714Y-85577142D01*
X117198095Y-85624761D01*
X117102857Y-85672380D01*
X116912380Y-85672380D01*
X116817142Y-85624761D01*
X118150476Y-85005714D02*
X118150476Y-85672380D01*
X117721904Y-85005714D02*
X117721904Y-85529523D01*
X117769523Y-85624761D01*
X117864761Y-85672380D01*
X118007619Y-85672380D01*
X118102857Y-85624761D01*
X118150476Y-85577142D01*
X119055238Y-85005714D02*
X119055238Y-85815238D01*
X119007619Y-85910476D01*
X118960000Y-85958095D01*
X118864761Y-86005714D01*
X118721904Y-86005714D01*
X118626666Y-85958095D01*
X119055238Y-85624761D02*
X118960000Y-85672380D01*
X118769523Y-85672380D01*
X118674285Y-85624761D01*
X118626666Y-85577142D01*
X118579047Y-85481904D01*
X118579047Y-85196190D01*
X118626666Y-85100952D01*
X118674285Y-85053333D01*
X118769523Y-85005714D01*
X118960000Y-85005714D01*
X119055238Y-85053333D01*
X105831428Y-84805714D02*
X105831428Y-85805714D01*
X105831428Y-84853333D02*
X105926666Y-84805714D01*
X106117142Y-84805714D01*
X106212380Y-84853333D01*
X106260000Y-84900952D01*
X106307619Y-84996190D01*
X106307619Y-85281904D01*
X106260000Y-85377142D01*
X106212380Y-85424761D01*
X106117142Y-85472380D01*
X105926666Y-85472380D01*
X105831428Y-85424761D01*
X106736190Y-85472380D02*
X106736190Y-84805714D01*
X106736190Y-84996190D02*
X106783809Y-84900952D01*
X106831428Y-84853333D01*
X106926666Y-84805714D01*
X107021904Y-84805714D01*
X107498095Y-85472380D02*
X107402857Y-85424761D01*
X107355238Y-85377142D01*
X107307619Y-85281904D01*
X107307619Y-84996190D01*
X107355238Y-84900952D01*
X107402857Y-84853333D01*
X107498095Y-84805714D01*
X107640952Y-84805714D01*
X107736190Y-84853333D01*
X107783809Y-84900952D01*
X107831428Y-84996190D01*
X107831428Y-85281904D01*
X107783809Y-85377142D01*
X107736190Y-85424761D01*
X107640952Y-85472380D01*
X107498095Y-85472380D01*
X108688571Y-84805714D02*
X108688571Y-85615238D01*
X108640952Y-85710476D01*
X108593333Y-85758095D01*
X108498095Y-85805714D01*
X108355238Y-85805714D01*
X108260000Y-85758095D01*
X108688571Y-85424761D02*
X108593333Y-85472380D01*
X108402857Y-85472380D01*
X108307619Y-85424761D01*
X108260000Y-85377142D01*
X108212380Y-85281904D01*
X108212380Y-84996190D01*
X108260000Y-84900952D01*
X108307619Y-84853333D01*
X108402857Y-84805714D01*
X108593333Y-84805714D01*
X108688571Y-84853333D01*
D11*
X97460000Y-85220000D02*
G75*
G03X97460000Y-85220000I-200000J0D01*
G01*
D12*
X155000000Y-68000000D02*
X154000000Y-68000000D01*
X156000000Y-85000000D02*
X156000000Y-69000000D01*
X78000000Y-90000000D02*
X151000000Y-90000000D01*
X73000000Y-45000000D02*
X73000000Y-85000000D01*
X151000000Y-40000000D02*
X78000000Y-40000000D01*
X156000000Y-61000000D02*
X156000000Y-45000000D01*
X154000000Y-62000000D02*
X155000000Y-62000000D01*
X156000000Y-61000000D02*
G75*
G02X155000000Y-62000000I-1000000J0D01*
G01*
X154000000Y-68000000D02*
G75*
G02X154000000Y-62000000I0J3000000D01*
G01*
X155000000Y-68000000D02*
G75*
G02X156000000Y-69000000I0J-1000000D01*
G01*
X156000000Y-85000000D02*
G75*
G02X151000000Y-90000000I-5000000J0D01*
G01*
X78000000Y-90000000D02*
G75*
G02X73000000Y-85000000I0J5000000D01*
G01*
X73000000Y-45000000D02*
G75*
G02X78000000Y-40000000I5000000J0D01*
G01*
X151000000Y-40000000D02*
G75*
G02X156000000Y-45000000I0J-5000000D01*
G01*
D13*
X100260000Y-58090000D02*
X98260000Y-58090000D01*
X98260000Y-55950000D02*
X100260000Y-55950000D01*
X91660000Y-45290000D02*
X89660000Y-45290000D01*
X89660000Y-43150000D02*
X91660000Y-43150000D01*
X108660000Y-45290000D02*
X106660000Y-45290000D01*
X106660000Y-43150000D02*
X108660000Y-43150000D01*
X99180000Y-83120000D02*
X99180000Y-82120000D01*
X100540000Y-82120000D02*
X100540000Y-83120000D01*
X107210000Y-69710000D02*
X106510000Y-69710000D01*
X106510000Y-68510000D02*
X107210000Y-68510000D01*
D11*
X116300000Y-57400000D02*
G75*
G03X116300000Y-57400000I0J0D01*
G01*
D10*
X124450000Y-65050000D02*
X124450000Y-64650000D01*
X124050000Y-65050000D02*
X124450000Y-65050000D01*
X117150000Y-65050000D02*
X117150000Y-64650000D01*
X117550000Y-65050000D02*
X117150000Y-65050000D01*
X124450000Y-57750000D02*
X124450000Y-58150000D01*
X124050000Y-57750000D02*
X124450000Y-57750000D01*
X117150000Y-57750000D02*
X117150000Y-58150000D01*
X117550000Y-57750000D02*
X117150000Y-57750000D01*
D13*
X122960000Y-79140000D02*
X123960000Y-79140000D01*
X123960000Y-80500000D02*
X122960000Y-80500000D01*
X84590000Y-86070000D02*
X84590000Y-88730000D01*
X89730000Y-86070000D02*
X84590000Y-86070000D01*
X89730000Y-88730000D02*
X84590000Y-88730000D01*
X89730000Y-86070000D02*
X89730000Y-88730000D01*
X91000000Y-86070000D02*
X92330000Y-86070000D01*
X92330000Y-86070000D02*
X92330000Y-87400000D01*
X128600000Y-86530000D02*
X130600000Y-86530000D01*
X130600000Y-88670000D02*
X128600000Y-88670000D01*
X121460000Y-44550000D02*
X123460000Y-44550000D01*
X123460000Y-46690000D02*
X121460000Y-46690000D01*
X90250000Y-46540000D02*
X88450000Y-46540000D01*
X88450000Y-49760000D02*
X90900000Y-49760000D01*
X107100000Y-46390000D02*
X105300000Y-46390000D01*
X105300000Y-49610000D02*
X107750000Y-49610000D01*
X98880000Y-59320000D02*
X97080000Y-59320000D01*
X97080000Y-62540000D02*
X99530000Y-62540000D01*
X121600000Y-44010000D02*
X123400000Y-44010000D01*
X123400000Y-40790000D02*
X120950000Y-40790000D01*
X77400000Y-57930000D02*
X76400000Y-57930000D01*
X76400000Y-56570000D02*
X77400000Y-56570000D01*
X109380000Y-60530000D02*
X109380000Y-61530000D01*
X108020000Y-61530000D02*
X108020000Y-60530000D01*
X87120000Y-52700000D02*
X87120000Y-51700000D01*
X88480000Y-51700000D02*
X88480000Y-52700000D01*
X91680000Y-51690000D02*
X91680000Y-52690000D01*
X90320000Y-52690000D02*
X90320000Y-51690000D01*
X103920000Y-52500000D02*
X103920000Y-51500000D01*
X105280000Y-51500000D02*
X105280000Y-52500000D01*
X108480000Y-51500000D02*
X108480000Y-52500000D01*
X107120000Y-52500000D02*
X107120000Y-51500000D01*
X95820000Y-65540000D02*
X95820000Y-64540000D01*
X97180000Y-64540000D02*
X97180000Y-65540000D01*
X100380000Y-64530000D02*
X100380000Y-65530000D01*
X99020000Y-65530000D02*
X99020000Y-64530000D01*
X93650000Y-52720000D02*
X94650000Y-52720000D01*
X94650000Y-54080000D02*
X93650000Y-54080000D01*
X110500000Y-52520000D02*
X111500000Y-52520000D01*
X111500000Y-53880000D02*
X110500000Y-53880000D01*
X102560000Y-65620000D02*
X103560000Y-65620000D01*
X103560000Y-66980000D02*
X102560000Y-66980000D01*
X88630000Y-67400000D02*
X87630000Y-67400000D01*
X87630000Y-66040000D02*
X88630000Y-66040000D01*
X88700000Y-60910000D02*
X87700000Y-60910000D01*
X87700000Y-59550000D02*
X88700000Y-59550000D01*
X78742335Y-52921392D02*
G75*
G03X75510000Y-52764484I-1672335J-1078608D01*
G01*
X78742335Y-55078608D02*
G75*
G02X75510000Y-55235516I-1672335J1078608D01*
G01*
X78111130Y-52920163D02*
G75*
G03X76029039Y-52920000I-1041130J-1079837D01*
G01*
X78111130Y-55079837D02*
G75*
G02X76029039Y-55080000I-1041130J1079837D01*
G01*
X75510000Y-52764000D02*
X75510000Y-52920000D01*
X75510000Y-55080000D02*
X75510000Y-55236000D01*
X111350000Y-61930000D02*
X111350000Y-60930000D01*
X109650000Y-60930000D02*
X109650000Y-61930000D01*
X93850000Y-48900000D02*
X93850000Y-47900000D01*
X92150000Y-47900000D02*
X92150000Y-48900000D01*
X110850000Y-48900000D02*
X110850000Y-47900000D01*
X109150000Y-47900000D02*
X109150000Y-48900000D01*
X104550000Y-61880000D02*
X104550000Y-60880000D01*
X102850000Y-60880000D02*
X102850000Y-61880000D01*
X97430000Y-48900000D02*
X97430000Y-47900000D01*
X95730000Y-47900000D02*
X95730000Y-48900000D01*
X112650000Y-48900000D02*
X112650000Y-47900000D01*
X110950000Y-47900000D02*
X110950000Y-48900000D01*
X106350000Y-61880000D02*
X106350000Y-60880000D01*
X104650000Y-60880000D02*
X104650000Y-61880000D01*
X95650000Y-48900000D02*
X95650000Y-47900000D01*
X93950000Y-47900000D02*
X93950000Y-48900000D01*
X114450000Y-48900000D02*
X114450000Y-47900000D01*
X112750000Y-47900000D02*
X112750000Y-48900000D01*
X102750000Y-61880000D02*
X102750000Y-60880000D01*
X101050000Y-60880000D02*
X101050000Y-61880000D01*
X98800000Y-47650000D02*
X98800000Y-48350000D01*
X97600000Y-48350000D02*
X97600000Y-47650000D01*
X115800000Y-47600000D02*
X115800000Y-48300000D01*
X114600000Y-48300000D02*
X114600000Y-47600000D01*
X107700000Y-60580000D02*
X107700000Y-61280000D01*
X106500000Y-61280000D02*
X106500000Y-60580000D01*
X88800000Y-52390000D02*
X88800000Y-51690000D01*
X90000000Y-51690000D02*
X90000000Y-52390000D01*
X105600000Y-52200000D02*
X105600000Y-51500000D01*
X106800000Y-51500000D02*
X106800000Y-52200000D01*
X97500000Y-65230000D02*
X97500000Y-64530000D01*
X98700000Y-64530000D02*
X98700000Y-65230000D01*
X93650000Y-51200000D02*
X94350000Y-51200000D01*
X94350000Y-52400000D02*
X93650000Y-52400000D01*
X110500000Y-51000000D02*
X111200000Y-51000000D01*
X111200000Y-52200000D02*
X110500000Y-52200000D01*
X102550000Y-64030000D02*
X103250000Y-64030000D01*
X103250000Y-65230000D02*
X102550000Y-65230000D01*
X86450000Y-49100000D02*
X86450000Y-48100000D01*
X84750000Y-48100000D02*
X84750000Y-49100000D01*
X103250000Y-48950000D02*
X103250000Y-47950000D01*
X101550000Y-47950000D02*
X101550000Y-48950000D01*
X95150000Y-61930000D02*
X95150000Y-60930000D01*
X93450000Y-60930000D02*
X93450000Y-61930000D01*
X126600000Y-42050000D02*
X126600000Y-42750000D01*
X125400000Y-42750000D02*
X125400000Y-42050000D01*
X119600000Y-42050000D02*
X119600000Y-42750000D01*
X118400000Y-42750000D02*
X118400000Y-42050000D01*
X90190000Y-63880000D02*
X90190000Y-62880000D01*
X88490000Y-62880000D02*
X88490000Y-63880000D01*
X87850000Y-63900000D02*
X87850000Y-62900000D01*
X86150000Y-62900000D02*
X86150000Y-63900000D01*
X124785000Y-48270000D02*
X120535000Y-48270000D01*
X120535000Y-48270000D02*
X120535000Y-53370000D01*
X145410000Y-77500000D02*
X145410000Y-75700000D01*
X142190000Y-75700000D02*
X142190000Y-78150000D01*
X145410000Y-57300000D02*
X145410000Y-55500000D01*
X142190000Y-55500000D02*
X142190000Y-57950000D01*
D10*
X118725000Y-71425000D02*
X118725000Y-71475000D01*
X122875000Y-71425000D02*
X122875000Y-71570000D01*
X122875000Y-76575000D02*
X122875000Y-76430000D01*
X118725000Y-76575000D02*
X118725000Y-76430000D01*
X118725000Y-71425000D02*
X122875000Y-71425000D01*
X118725000Y-76575000D02*
X122875000Y-76575000D01*
X118725000Y-71475000D02*
X117325000Y-71475000D01*
D13*
X84810000Y-65900000D02*
X84810000Y-64100000D01*
X81590000Y-64100000D02*
X81590000Y-67050000D01*
D10*
X81075000Y-80075000D02*
X81650000Y-80075000D01*
X81075000Y-74325000D02*
X81725000Y-74325000D01*
X91725000Y-74325000D02*
X91075000Y-74325000D01*
X91725000Y-80075000D02*
X91075000Y-80075000D01*
X81075000Y-80075000D02*
X81075000Y-74325000D01*
X91725000Y-80075000D02*
X91725000Y-74325000D01*
X81650000Y-80075000D02*
X81650000Y-81675000D01*
X100035000Y-78645000D02*
X100260000Y-78645000D01*
X100035000Y-71395000D02*
X100335000Y-71395000D01*
X107285000Y-71395000D02*
X106985000Y-71395000D01*
X107285000Y-78645000D02*
X106985000Y-78645000D01*
X100035000Y-78645000D02*
X100035000Y-78345000D01*
X107285000Y-78645000D02*
X107285000Y-78345000D01*
X107285000Y-71395000D02*
X107285000Y-71695000D01*
X100035000Y-71395000D02*
X100035000Y-71695000D01*
X100260000Y-78645000D02*
X100260000Y-79870000D01*
D13*
X111710000Y-67240000D02*
X112710000Y-67240000D01*
X112710000Y-68600000D02*
X111710000Y-68600000D01*
X111710000Y-68640000D02*
X112710000Y-68640000D01*
X112710000Y-70000000D02*
X111710000Y-70000000D01*
X143300000Y-66920000D02*
X144300000Y-66920000D01*
X144300000Y-68280000D02*
X143300000Y-68280000D01*
X143300000Y-46720000D02*
X144300000Y-46720000D01*
X144300000Y-48080000D02*
X143300000Y-48080000D01*
X111710000Y-72840000D02*
X112710000Y-72840000D01*
X112710000Y-74200000D02*
X111710000Y-74200000D01*
X111710000Y-70040000D02*
X112710000Y-70040000D01*
X112710000Y-71400000D02*
X111710000Y-71400000D01*
X111710000Y-71440000D02*
X112710000Y-71440000D01*
X112710000Y-72800000D02*
X111710000Y-72800000D01*
X95080000Y-79500000D02*
X95080000Y-80500000D01*
X93720000Y-80500000D02*
X93720000Y-79500000D01*
X93480000Y-79500000D02*
X93480000Y-80500000D01*
X92120000Y-80500000D02*
X92120000Y-79500000D01*
X96980000Y-78610000D02*
X96980000Y-77610000D01*
X98340000Y-77610000D02*
X98340000Y-78610000D01*
X102360000Y-80740000D02*
X103360000Y-80740000D01*
X103360000Y-82100000D02*
X102360000Y-82100000D01*
X93480000Y-73900000D02*
X93480000Y-74900000D01*
X92120000Y-74900000D02*
X92120000Y-73900000D01*
X95080000Y-73900000D02*
X95080000Y-74900000D01*
X93720000Y-74900000D02*
X93720000Y-73900000D01*
X147280000Y-75700000D02*
X147280000Y-76700000D01*
X145920000Y-76700000D02*
X145920000Y-75700000D01*
X138500000Y-69480000D02*
X137500000Y-69480000D01*
X137500000Y-68120000D02*
X138500000Y-68120000D01*
X138500000Y-70880000D02*
X137500000Y-70880000D01*
X137500000Y-69520000D02*
X138500000Y-69520000D01*
X138500000Y-72280000D02*
X137500000Y-72280000D01*
X137500000Y-70920000D02*
X138500000Y-70920000D01*
X138500000Y-73680000D02*
X137500000Y-73680000D01*
X137500000Y-72320000D02*
X138500000Y-72320000D01*
X138500000Y-75080000D02*
X137500000Y-75080000D01*
X137500000Y-73720000D02*
X138500000Y-73720000D01*
X138500000Y-76480000D02*
X137500000Y-76480000D01*
X137500000Y-75120000D02*
X138500000Y-75120000D01*
X138500000Y-77880000D02*
X137500000Y-77880000D01*
X137500000Y-76520000D02*
X138500000Y-76520000D01*
X138500000Y-79280000D02*
X137500000Y-79280000D01*
X137500000Y-77920000D02*
X138500000Y-77920000D01*
X138500000Y-80680000D02*
X137500000Y-80680000D01*
X137500000Y-79320000D02*
X138500000Y-79320000D01*
X138500000Y-82080000D02*
X137500000Y-82080000D01*
X137500000Y-80720000D02*
X138500000Y-80720000D01*
X138500000Y-83480000D02*
X137500000Y-83480000D01*
X137500000Y-82120000D02*
X138500000Y-82120000D01*
X138500000Y-84880000D02*
X137500000Y-84880000D01*
X137500000Y-83520000D02*
X138500000Y-83520000D01*
X132500000Y-68120000D02*
X133500000Y-68120000D01*
X133500000Y-69480000D02*
X132500000Y-69480000D01*
X132500000Y-69520000D02*
X133500000Y-69520000D01*
X133500000Y-70880000D02*
X132500000Y-70880000D01*
X132500000Y-70920000D02*
X133500000Y-70920000D01*
X133500000Y-72280000D02*
X132500000Y-72280000D01*
X132500000Y-72320000D02*
X133500000Y-72320000D01*
X133500000Y-73680000D02*
X132500000Y-73680000D01*
X132500000Y-73720000D02*
X133500000Y-73720000D01*
X133500000Y-75080000D02*
X132500000Y-75080000D01*
X132500000Y-75120000D02*
X133500000Y-75120000D01*
X133500000Y-76480000D02*
X132500000Y-76480000D01*
X132500000Y-76520000D02*
X133500000Y-76520000D01*
X133500000Y-77880000D02*
X132500000Y-77880000D01*
X132500000Y-77920000D02*
X133500000Y-77920000D01*
X133500000Y-79280000D02*
X132500000Y-79280000D01*
X132500000Y-79320000D02*
X133500000Y-79320000D01*
X133500000Y-80680000D02*
X132500000Y-80680000D01*
X132500000Y-80720000D02*
X133500000Y-80720000D01*
X133500000Y-82080000D02*
X132500000Y-82080000D01*
X132500000Y-82120000D02*
X133500000Y-82120000D01*
X133500000Y-83480000D02*
X132500000Y-83480000D01*
X132500000Y-83520000D02*
X133500000Y-83520000D01*
X133500000Y-84880000D02*
X132500000Y-84880000D01*
X147280000Y-55500000D02*
X147280000Y-56500000D01*
X145920000Y-56500000D02*
X145920000Y-55500000D01*
X138500000Y-46480000D02*
X137500000Y-46480000D01*
X137500000Y-45120000D02*
X138500000Y-45120000D01*
X138500000Y-47880000D02*
X137500000Y-47880000D01*
X137500000Y-46520000D02*
X138500000Y-46520000D01*
X138500000Y-49280000D02*
X137500000Y-49280000D01*
X137500000Y-47920000D02*
X138500000Y-47920000D01*
X138500000Y-50680000D02*
X137500000Y-50680000D01*
X137500000Y-49320000D02*
X138500000Y-49320000D01*
X138500000Y-52080000D02*
X137500000Y-52080000D01*
X137500000Y-50720000D02*
X138500000Y-50720000D01*
X138500000Y-53480000D02*
X137500000Y-53480000D01*
X137500000Y-52120000D02*
X138500000Y-52120000D01*
X138500000Y-54880000D02*
X137500000Y-54880000D01*
X137500000Y-53520000D02*
X138500000Y-53520000D01*
X138500000Y-56280000D02*
X137500000Y-56280000D01*
X137500000Y-54920000D02*
X138500000Y-54920000D01*
X138500000Y-57680000D02*
X137500000Y-57680000D01*
X137500000Y-56320000D02*
X138500000Y-56320000D01*
X138500000Y-59080000D02*
X137500000Y-59080000D01*
X137500000Y-57720000D02*
X138500000Y-57720000D01*
X138500000Y-60480000D02*
X137500000Y-60480000D01*
X137500000Y-59120000D02*
X138500000Y-59120000D01*
X138500000Y-61880000D02*
X137500000Y-61880000D01*
X137500000Y-60520000D02*
X138500000Y-60520000D01*
X132500000Y-45120000D02*
X133500000Y-45120000D01*
X133500000Y-46480000D02*
X132500000Y-46480000D01*
X132500000Y-46520000D02*
X133500000Y-46520000D01*
X133500000Y-47880000D02*
X132500000Y-47880000D01*
X132500000Y-47920000D02*
X133500000Y-47920000D01*
X133500000Y-49280000D02*
X132500000Y-49280000D01*
X132500000Y-49320000D02*
X133500000Y-49320000D01*
X133500000Y-50680000D02*
X132500000Y-50680000D01*
X132500000Y-50720000D02*
X133500000Y-50720000D01*
X133500000Y-52080000D02*
X132500000Y-52080000D01*
X132500000Y-52120000D02*
X133500000Y-52120000D01*
X133500000Y-53480000D02*
X132500000Y-53480000D01*
X132500000Y-53520000D02*
X133500000Y-53520000D01*
X133500000Y-54880000D02*
X132500000Y-54880000D01*
X132500000Y-54920000D02*
X133500000Y-54920000D01*
X133500000Y-56280000D02*
X132500000Y-56280000D01*
X132500000Y-56320000D02*
X133500000Y-56320000D01*
X133500000Y-57680000D02*
X132500000Y-57680000D01*
X132500000Y-57720000D02*
X133500000Y-57720000D01*
X133500000Y-59080000D02*
X132500000Y-59080000D01*
X132500000Y-59120000D02*
X133500000Y-59120000D01*
X133500000Y-60480000D02*
X132500000Y-60480000D01*
X132500000Y-60520000D02*
X133500000Y-60520000D01*
X133500000Y-61880000D02*
X132500000Y-61880000D01*
X125120000Y-73700000D02*
X125120000Y-72700000D01*
X126480000Y-72700000D02*
X126480000Y-73700000D01*
X122960000Y-82340000D02*
X123960000Y-82340000D01*
X123960000Y-83700000D02*
X122960000Y-83700000D01*
X122960000Y-77540000D02*
X123960000Y-77540000D01*
X123960000Y-78900000D02*
X122960000Y-78900000D01*
X122960000Y-80740000D02*
X123960000Y-80740000D01*
X123960000Y-82100000D02*
X122960000Y-82100000D01*
X76960000Y-72240000D02*
X77960000Y-72240000D01*
X77960000Y-73600000D02*
X76960000Y-73600000D01*
X143100000Y-80720000D02*
X144100000Y-80720000D01*
X144100000Y-82080000D02*
X143100000Y-82080000D01*
X143100000Y-60520000D02*
X144100000Y-60520000D01*
X144100000Y-61880000D02*
X143100000Y-61880000D01*
X124290000Y-88920000D02*
X124290000Y-86260000D01*
X114070000Y-88920000D02*
X124290000Y-88920000D01*
X114070000Y-86260000D02*
X124290000Y-86260000D01*
X114070000Y-88920000D02*
X114070000Y-86260000D01*
X112800000Y-88920000D02*
X111470000Y-88920000D01*
X111470000Y-88920000D02*
X111470000Y-87590000D01*
X108690000Y-88730000D02*
X108690000Y-86070000D01*
X98470000Y-88730000D02*
X108690000Y-88730000D01*
X98470000Y-86070000D02*
X108690000Y-86070000D01*
X98470000Y-88730000D02*
X98470000Y-86070000D01*
X97200000Y-88730000D02*
X95870000Y-88730000D01*
X95870000Y-88730000D02*
X95870000Y-87400000D01*
X149450000Y-74300000D02*
X147750000Y-74300000D01*
X147750000Y-74300000D02*
X147750000Y-77450000D01*
X149450000Y-74300000D02*
X149450000Y-77450000D01*
X145542335Y-69721392D02*
G75*
G03X142310000Y-69564484I-1672335J-1078608D01*
G01*
X145542335Y-71878608D02*
G75*
G02X142310000Y-72035516I-1672335J1078608D01*
G01*
X144911130Y-69720163D02*
G75*
G03X142829039Y-69720000I-1041130J-1079837D01*
G01*
X144911130Y-71879837D02*
G75*
G02X142829039Y-71880000I-1041130J1079837D01*
G01*
X142310000Y-69564000D02*
X142310000Y-69720000D01*
X142310000Y-71880000D02*
X142310000Y-72036000D01*
X145542335Y-49721392D02*
G75*
G03X142310000Y-49564484I-1672335J-1078608D01*
G01*
X145542335Y-51878608D02*
G75*
G02X142310000Y-52035516I-1672335J1078608D01*
G01*
X144911130Y-49720163D02*
G75*
G03X142829039Y-49720000I-1041130J-1079837D01*
G01*
X144911130Y-51879837D02*
G75*
G02X142829039Y-51880000I-1041130J1079837D01*
G01*
X142310000Y-49564000D02*
X142310000Y-49720000D01*
X142310000Y-51880000D02*
X142310000Y-52036000D01*
X149450000Y-54100000D02*
X147750000Y-54100000D01*
X147750000Y-54100000D02*
X147750000Y-57250000D01*
X149450000Y-54100000D02*
X149450000Y-57250000D01*
X107210000Y-68380000D02*
X106510000Y-68380000D01*
X106510000Y-67180000D02*
X107210000Y-67180000D01*
X103410000Y-83420000D02*
X102710000Y-83420000D01*
X102710000Y-82220000D02*
X103410000Y-82220000D01*
X89240000Y-70510000D02*
X90240000Y-70510000D01*
X90240000Y-68810000D02*
X89240000Y-68810000D01*
X86080000Y-70800000D02*
X86780000Y-70800000D01*
X86780000Y-72000000D02*
X86080000Y-72000000D01*
X90550000Y-72000000D02*
X89850000Y-72000000D01*
X89850000Y-70800000D02*
X90550000Y-70800000D01*
X144150000Y-80400000D02*
X143450000Y-80400000D01*
X143450000Y-79200000D02*
X144150000Y-79200000D01*
X141800000Y-55450000D02*
X141800000Y-56150000D01*
X140600000Y-56150000D02*
X140600000Y-55450000D01*
X144150000Y-60200000D02*
X143450000Y-60200000D01*
X143450000Y-59000000D02*
X144150000Y-59000000D01*
X141800000Y-75650000D02*
X141800000Y-76350000D01*
X140600000Y-76350000D02*
X140600000Y-75650000D01*
X123210000Y-71220000D02*
X122510000Y-71220000D01*
X122510000Y-70020000D02*
X123210000Y-70020000D01*
X120260000Y-49670000D02*
X120260000Y-50370000D01*
X119060000Y-50370000D02*
X119060000Y-49670000D01*
X122910000Y-67220000D02*
X123610000Y-67220000D01*
X123610000Y-68420000D02*
X122910000Y-68420000D01*
X122910000Y-65780000D02*
X123610000Y-65780000D01*
X123610000Y-66980000D02*
X122910000Y-66980000D01*
X126650000Y-67220000D02*
X127350000Y-67220000D01*
X127350000Y-68420000D02*
X126650000Y-68420000D01*
X114550000Y-58420000D02*
X113850000Y-58420000D01*
X113850000Y-57220000D02*
X114550000Y-57220000D01*
X126650000Y-65820000D02*
X127350000Y-65820000D01*
X127350000Y-67020000D02*
X126650000Y-67020000D01*
X114550000Y-59800000D02*
X113850000Y-59800000D01*
X113850000Y-58600000D02*
X114550000Y-58600000D01*
X114550000Y-62820000D02*
X113850000Y-62820000D01*
X113850000Y-61620000D02*
X114550000Y-61620000D01*
X126710000Y-57820000D02*
X127410000Y-57820000D01*
X127410000Y-59020000D02*
X126710000Y-59020000D01*
X114550000Y-61400000D02*
X113850000Y-61400000D01*
X113850000Y-60200000D02*
X114550000Y-60200000D01*
X126710000Y-59220000D02*
X127410000Y-59220000D01*
X127410000Y-60420000D02*
X126710000Y-60420000D01*
X77300000Y-70780000D02*
X78000000Y-70780000D01*
X78000000Y-71980000D02*
X77300000Y-71980000D01*
M02*
