G04 #@! TF.GenerationSoftware,KiCad,Pcbnew,(5.1.2)-1*
G04 #@! TF.CreationDate,2019-07-27T14:33:51+02:00*
G04 #@! TF.ProjectId,arbitrary_func_gen,61726269-7472-4617-9279-5f66756e635f,REV1.0*
G04 #@! TF.SameCoordinates,Original*
G04 #@! TF.FileFunction,Soldermask,Top*
G04 #@! TF.FilePolarity,Negative*
%FSLAX46Y46*%
G04 Gerber Fmt 4.6, Leading zero omitted, Abs format (unit mm)*
G04 Created by KiCad (PCBNEW (5.1.2)-1) date 2019-07-27 14:33:51*
%MOMM*%
%LPD*%
G04 APERTURE LIST*
%ADD10C,0.100000*%
%ADD11R,1.400000X0.500000*%
%ADD12R,2.000000X1.700000*%
%ADD13R,0.900000X1.200000*%
%ADD14R,1.200000X0.750000*%
%ADD15R,2.799999X2.799999*%
%ADD16R,0.300000X0.850000*%
%ADD17R,0.850000X0.300000*%
%ADD18R,1.200000X0.900000*%
%ADD19R,1.700000X1.700000*%
%ADD20O,1.700000X1.700000*%
%ADD21R,6.000000X1.500000*%
%ADD22R,6.000001X2.999999*%
%ADD23O,1.800000X1.150000*%
%ADD24O,2.000000X1.450000*%
%ADD25R,1.700000X0.450000*%
%ADD26C,0.800000*%
%ADD27R,1.560000X0.650000*%
%ADD28R,1.800000X1.800000*%
%ADD29C,1.800000*%
%ADD30R,1.250000X1.500000*%
%ADD31R,0.750000X1.200000*%
%ADD32R,1.650000X1.950000*%
%ADD33R,0.650000X1.560000*%
%ADD34R,1.550000X0.600000*%
%ADD35R,0.450000X1.750000*%
%ADD36R,0.600000X1.200000*%
%ADD37R,1.200000X0.600000*%
%ADD38O,0.760000X2.400000*%
%ADD39R,0.760000X2.400000*%
%ADD40R,1.000000X1.000000*%
%ADD41R,1.500000X1.250000*%
%ADD42C,6.400000*%
G04 APERTURE END LIST*
D10*
X155000000Y-68000000D02*
X154000000Y-68000000D01*
X156000000Y-85000000D02*
X156000000Y-69000000D01*
X78000000Y-90000000D02*
X151000000Y-90000000D01*
X73000000Y-45000000D02*
X73000000Y-85000000D01*
X151000000Y-40000000D02*
X78000000Y-40000000D01*
X156000000Y-61000000D02*
X156000000Y-45000000D01*
X154000000Y-62000000D02*
X155000000Y-62000000D01*
X156000000Y-61000000D02*
G75*
G02X155000000Y-62000000I-1000000J0D01*
G01*
X154000000Y-68000000D02*
G75*
G02X154000000Y-62000000I0J3000000D01*
G01*
X155000000Y-68000000D02*
G75*
G02X156000000Y-69000000I0J-1000000D01*
G01*
X156000000Y-85000000D02*
G75*
G02X151000000Y-90000000I-5000000J0D01*
G01*
X78000000Y-90000000D02*
G75*
G02X73000000Y-85000000I0J5000000D01*
G01*
X73000000Y-45000000D02*
G75*
G02X78000000Y-40000000I5000000J0D01*
G01*
X151000000Y-40000000D02*
G75*
G02X156000000Y-45000000I0J-5000000D01*
G01*
D11*
X97860000Y-83620000D03*
X97860000Y-82420000D03*
X97860000Y-81220000D03*
D12*
X97260000Y-57020000D03*
X101260000Y-57020000D03*
X88660000Y-44220000D03*
X92660000Y-44220000D03*
X105660000Y-44220000D03*
X109660000Y-44220000D03*
D13*
X99860000Y-81520000D03*
X99860000Y-83720000D03*
D14*
X107810000Y-69110000D03*
X105910000Y-69110000D03*
D15*
X120825000Y-61400000D03*
D16*
X118050000Y-57975000D03*
X118550000Y-57975000D03*
X119050000Y-57975000D03*
X119550000Y-57975000D03*
X120050000Y-57975000D03*
X120550000Y-57975000D03*
X121050000Y-57975000D03*
X121550000Y-57975000D03*
X122050000Y-57975000D03*
X122550000Y-57975000D03*
X123050000Y-57975000D03*
X123550000Y-57975000D03*
D17*
X124225000Y-58650000D03*
X124225000Y-59150000D03*
X124225000Y-59650000D03*
X124225000Y-60150000D03*
X124225000Y-60650000D03*
X124225000Y-61150000D03*
X124225000Y-61650000D03*
X124225000Y-62150000D03*
X124225000Y-62650000D03*
X124225000Y-63150000D03*
X124225000Y-63650000D03*
X124225000Y-64150000D03*
D16*
X123550000Y-64825000D03*
X123050000Y-64825000D03*
X122550000Y-64825000D03*
X122050000Y-64825000D03*
X121550000Y-64825000D03*
X121050000Y-64825000D03*
X120550000Y-64825000D03*
X120050000Y-64825000D03*
X119550000Y-64825000D03*
X119050000Y-64825000D03*
X118550000Y-64825000D03*
X118050000Y-64825000D03*
D17*
X117375000Y-64150000D03*
X117375000Y-63650000D03*
X117375000Y-63150000D03*
X117375000Y-62650000D03*
X117375000Y-62150000D03*
X117375000Y-61650000D03*
X117375000Y-61150000D03*
X117375000Y-60650000D03*
X117375000Y-60150000D03*
X117375000Y-59650000D03*
X117375000Y-59150000D03*
X117375000Y-58650000D03*
D18*
X124560000Y-79820000D03*
X122360000Y-79820000D03*
D19*
X91000000Y-87400000D03*
D20*
X88460000Y-87400000D03*
X85920000Y-87400000D03*
D12*
X131600000Y-87600000D03*
X127600000Y-87600000D03*
X124460000Y-45620000D03*
X120460000Y-45620000D03*
D21*
X153000000Y-55000000D03*
D22*
X153000000Y-51000000D03*
X153000000Y-59000000D03*
D21*
X153000000Y-75000000D03*
D22*
X153000000Y-71000000D03*
X153000000Y-79000000D03*
D23*
X74800000Y-61125000D03*
X74800000Y-68875000D03*
D24*
X78600000Y-68725000D03*
X78600000Y-61275000D03*
D25*
X78600000Y-65650000D03*
X78600000Y-64350000D03*
X78600000Y-66300000D03*
X78600000Y-63700000D03*
X78600000Y-65000000D03*
D26*
X77500000Y-67500000D03*
X77500000Y-62500000D03*
D27*
X90700000Y-49100000D03*
X90700000Y-48150000D03*
X90700000Y-47200000D03*
X88000000Y-47200000D03*
X88000000Y-49100000D03*
X107550000Y-48950000D03*
X107550000Y-48000000D03*
X107550000Y-47050000D03*
X104850000Y-47050000D03*
X104850000Y-48950000D03*
X99330000Y-61880000D03*
X99330000Y-60930000D03*
X99330000Y-59980000D03*
X96630000Y-59980000D03*
X96630000Y-61880000D03*
X121150000Y-41450000D03*
X121150000Y-42400000D03*
X121150000Y-43350000D03*
X123850000Y-43350000D03*
X123850000Y-41450000D03*
D18*
X75800000Y-57250000D03*
X78000000Y-57250000D03*
D13*
X108700000Y-62130000D03*
X108700000Y-59930000D03*
X87800000Y-51100000D03*
X87800000Y-53300000D03*
X91000000Y-53290000D03*
X91000000Y-51090000D03*
X104600000Y-50900000D03*
X104600000Y-53100000D03*
X107800000Y-53100000D03*
X107800000Y-50900000D03*
X96500000Y-63940000D03*
X96500000Y-66140000D03*
X99700000Y-66130000D03*
X99700000Y-63930000D03*
D18*
X95250000Y-53400000D03*
X93050000Y-53400000D03*
X112100000Y-53200000D03*
X109900000Y-53200000D03*
X104160000Y-66300000D03*
X101960000Y-66300000D03*
X87030000Y-66720000D03*
X89230000Y-66720000D03*
X87100000Y-60230000D03*
X89300000Y-60230000D03*
D28*
X75800000Y-54000000D03*
D29*
X78340000Y-54000000D03*
D30*
X110500000Y-60180000D03*
X110500000Y-62680000D03*
X93000000Y-47150000D03*
X93000000Y-49650000D03*
X110000000Y-47150000D03*
X110000000Y-49650000D03*
X103700000Y-60130000D03*
X103700000Y-62630000D03*
X96580000Y-47150000D03*
X96580000Y-49650000D03*
X111800000Y-47150000D03*
X111800000Y-49650000D03*
X105500000Y-60130000D03*
X105500000Y-62630000D03*
X94800000Y-47150000D03*
X94800000Y-49650000D03*
X113600000Y-47150000D03*
X113600000Y-49650000D03*
X101900000Y-60130000D03*
X101900000Y-62630000D03*
D31*
X98200000Y-47050000D03*
X98200000Y-48950000D03*
X115200000Y-47000000D03*
X115200000Y-48900000D03*
X107100000Y-59980000D03*
X107100000Y-61880000D03*
X89400000Y-52990000D03*
X89400000Y-51090000D03*
X106200000Y-52800000D03*
X106200000Y-50900000D03*
X98100000Y-65830000D03*
X98100000Y-63930000D03*
D14*
X93050000Y-51800000D03*
X94950000Y-51800000D03*
X109900000Y-51600000D03*
X111800000Y-51600000D03*
X101950000Y-64630000D03*
X103850000Y-64630000D03*
D30*
X85600000Y-47350000D03*
X85600000Y-49850000D03*
X102400000Y-47200000D03*
X102400000Y-49700000D03*
X94300000Y-60180000D03*
X94300000Y-62680000D03*
D31*
X126000000Y-41450000D03*
X126000000Y-43350000D03*
X119000000Y-41450000D03*
X119000000Y-43350000D03*
D30*
X89340000Y-62130000D03*
X89340000Y-64630000D03*
X87000000Y-62150000D03*
X87000000Y-64650000D03*
D32*
X121560000Y-49445000D03*
X121560000Y-52195000D03*
X123760000Y-52195000D03*
X123760000Y-49445000D03*
D33*
X142850000Y-77950000D03*
X143800000Y-77950000D03*
X144750000Y-77950000D03*
X144750000Y-75250000D03*
X142850000Y-75250000D03*
X142850000Y-57750000D03*
X143800000Y-57750000D03*
X144750000Y-57750000D03*
X144750000Y-55050000D03*
X142850000Y-55050000D03*
D34*
X118100000Y-72095000D03*
X118100000Y-73365000D03*
X118100000Y-74635000D03*
X118100000Y-75905000D03*
X123500000Y-75905000D03*
X123500000Y-74635000D03*
X123500000Y-73365000D03*
X123500000Y-72095000D03*
D33*
X82250000Y-66350000D03*
X83200000Y-66350000D03*
X84150000Y-66350000D03*
X84150000Y-63650000D03*
X82250000Y-63650000D03*
X83200000Y-63650000D03*
D35*
X82175000Y-80800000D03*
X82825000Y-80800000D03*
X83475000Y-80800000D03*
X84125000Y-80800000D03*
X84775000Y-80800000D03*
X85425000Y-80800000D03*
X86075000Y-80800000D03*
X86725000Y-80800000D03*
X87375000Y-80800000D03*
X88025000Y-80800000D03*
X88675000Y-80800000D03*
X89325000Y-80800000D03*
X89975000Y-80800000D03*
X90625000Y-80800000D03*
X90625000Y-73600000D03*
X89975000Y-73600000D03*
X89325000Y-73600000D03*
X88675000Y-73600000D03*
X88025000Y-73600000D03*
X87375000Y-73600000D03*
X86725000Y-73600000D03*
X86075000Y-73600000D03*
X85425000Y-73600000D03*
X84775000Y-73600000D03*
X84125000Y-73600000D03*
X83475000Y-73600000D03*
X82825000Y-73600000D03*
X82175000Y-73600000D03*
D36*
X100860000Y-79270000D03*
X101660000Y-79270000D03*
X102460000Y-79270000D03*
X103260000Y-79270000D03*
X104060000Y-79270000D03*
X104860000Y-79270000D03*
X105660000Y-79270000D03*
X106460000Y-79270000D03*
D37*
X107910000Y-77820000D03*
X107910000Y-77020000D03*
X107910000Y-76220000D03*
X107910000Y-75420000D03*
X107910000Y-74620000D03*
X107910000Y-73820000D03*
X107910000Y-73020000D03*
X107910000Y-72220000D03*
D36*
X106460000Y-70770000D03*
X105660000Y-70770000D03*
X104860000Y-70770000D03*
X104060000Y-70770000D03*
X103260000Y-70770000D03*
X102460000Y-70770000D03*
X101660000Y-70770000D03*
X100860000Y-70770000D03*
D37*
X99410000Y-72220000D03*
X99410000Y-73020000D03*
X99410000Y-73820000D03*
X99410000Y-74620000D03*
X99410000Y-75420000D03*
X99410000Y-76220000D03*
X99410000Y-77020000D03*
X99410000Y-77820000D03*
D18*
X113310000Y-67920000D03*
X111110000Y-67920000D03*
X113310000Y-69320000D03*
X111110000Y-69320000D03*
X144900000Y-67600000D03*
X142700000Y-67600000D03*
X144900000Y-47400000D03*
X142700000Y-47400000D03*
X113310000Y-73520000D03*
X111110000Y-73520000D03*
X113310000Y-70720000D03*
X111110000Y-70720000D03*
X113310000Y-72120000D03*
X111110000Y-72120000D03*
D13*
X94400000Y-81100000D03*
X94400000Y-78900000D03*
X92800000Y-81100000D03*
X92800000Y-78900000D03*
X97660000Y-77010000D03*
X97660000Y-79210000D03*
D18*
X103960000Y-81420000D03*
X101760000Y-81420000D03*
D13*
X92800000Y-75500000D03*
X92800000Y-73300000D03*
X94400000Y-75500000D03*
X94400000Y-73300000D03*
X146600000Y-77300000D03*
X146600000Y-75100000D03*
D18*
X136900000Y-68800000D03*
X139100000Y-68800000D03*
X136900000Y-70200000D03*
X139100000Y-70200000D03*
X136900000Y-71600000D03*
X139100000Y-71600000D03*
X136900000Y-73000000D03*
X139100000Y-73000000D03*
X136900000Y-74400000D03*
X139100000Y-74400000D03*
X136900000Y-75800000D03*
X139100000Y-75800000D03*
X136900000Y-77200000D03*
X139100000Y-77200000D03*
X136900000Y-78600000D03*
X139100000Y-78600000D03*
X136900000Y-80000000D03*
X139100000Y-80000000D03*
X136900000Y-81400000D03*
X139100000Y-81400000D03*
X136900000Y-82800000D03*
X139100000Y-82800000D03*
X136900000Y-84200000D03*
X139100000Y-84200000D03*
X134100000Y-68800000D03*
X131900000Y-68800000D03*
X134100000Y-70200000D03*
X131900000Y-70200000D03*
X134100000Y-71600000D03*
X131900000Y-71600000D03*
X134100000Y-73000000D03*
X131900000Y-73000000D03*
X134100000Y-74400000D03*
X131900000Y-74400000D03*
X134100000Y-75800000D03*
X131900000Y-75800000D03*
X134100000Y-77200000D03*
X131900000Y-77200000D03*
X134100000Y-78600000D03*
X131900000Y-78600000D03*
X134100000Y-80000000D03*
X131900000Y-80000000D03*
X134100000Y-81400000D03*
X131900000Y-81400000D03*
X134100000Y-82800000D03*
X131900000Y-82800000D03*
X134100000Y-84200000D03*
X131900000Y-84200000D03*
D13*
X146600000Y-57100000D03*
X146600000Y-54900000D03*
D18*
X136900000Y-45800000D03*
X139100000Y-45800000D03*
X136900000Y-47200000D03*
X139100000Y-47200000D03*
X136900000Y-48600000D03*
X139100000Y-48600000D03*
X136900000Y-50000000D03*
X139100000Y-50000000D03*
X136900000Y-51400000D03*
X139100000Y-51400000D03*
X136900000Y-52800000D03*
X139100000Y-52800000D03*
X136900000Y-54200000D03*
X139100000Y-54200000D03*
X136900000Y-55600000D03*
X139100000Y-55600000D03*
X136900000Y-57000000D03*
X139100000Y-57000000D03*
X136900000Y-58400000D03*
X139100000Y-58400000D03*
X136900000Y-59800000D03*
X139100000Y-59800000D03*
X136900000Y-61200000D03*
X139100000Y-61200000D03*
X134100000Y-45800000D03*
X131900000Y-45800000D03*
X134100000Y-47200000D03*
X131900000Y-47200000D03*
X134100000Y-48600000D03*
X131900000Y-48600000D03*
X134100000Y-50000000D03*
X131900000Y-50000000D03*
X134100000Y-51400000D03*
X131900000Y-51400000D03*
X134100000Y-52800000D03*
X131900000Y-52800000D03*
X134100000Y-54200000D03*
X131900000Y-54200000D03*
X134100000Y-55600000D03*
X131900000Y-55600000D03*
X134100000Y-57000000D03*
X131900000Y-57000000D03*
X134100000Y-58400000D03*
X131900000Y-58400000D03*
X134100000Y-59800000D03*
X131900000Y-59800000D03*
X134100000Y-61200000D03*
X131900000Y-61200000D03*
D13*
X125800000Y-72100000D03*
X125800000Y-74300000D03*
D18*
X124560000Y-83020000D03*
X122360000Y-83020000D03*
X124560000Y-78220000D03*
X122360000Y-78220000D03*
X124560000Y-81420000D03*
X122360000Y-81420000D03*
X78560000Y-72920000D03*
X76360000Y-72920000D03*
X144700000Y-81400000D03*
X142500000Y-81400000D03*
X144700000Y-61200000D03*
X142500000Y-61200000D03*
D19*
X112800000Y-87590000D03*
D20*
X115340000Y-87590000D03*
X117880000Y-87590000D03*
X120420000Y-87590000D03*
X122960000Y-87590000D03*
D19*
X97200000Y-87400000D03*
D20*
X99740000Y-87400000D03*
X102280000Y-87400000D03*
X104820000Y-87400000D03*
X107360000Y-87400000D03*
D38*
X115039600Y-79212400D03*
X115039600Y-83112400D03*
X116309600Y-79212400D03*
X116309600Y-83112400D03*
X117579600Y-79212400D03*
X117579600Y-83112400D03*
X118849600Y-79212400D03*
X118849600Y-83112400D03*
D39*
X120119600Y-79212400D03*
D38*
X120119600Y-83112400D03*
D40*
X148600000Y-74950000D03*
X148600000Y-77450000D03*
D28*
X142600000Y-70800000D03*
D29*
X145140000Y-70800000D03*
D28*
X142600000Y-50800000D03*
D29*
X145140000Y-50800000D03*
D40*
X148600000Y-54750000D03*
X148600000Y-57250000D03*
D14*
X107810000Y-67780000D03*
X105910000Y-67780000D03*
X104010000Y-82820000D03*
X102110000Y-82820000D03*
D41*
X90990000Y-69660000D03*
X88490000Y-69660000D03*
D14*
X85480000Y-71400000D03*
X87380000Y-71400000D03*
X91150000Y-71400000D03*
X89250000Y-71400000D03*
X144750000Y-79800000D03*
X142850000Y-79800000D03*
D31*
X141200000Y-54850000D03*
X141200000Y-56750000D03*
D14*
X144750000Y-59600000D03*
X142850000Y-59600000D03*
D31*
X141200000Y-75050000D03*
X141200000Y-76950000D03*
D14*
X123810000Y-70620000D03*
X121910000Y-70620000D03*
D31*
X119660000Y-49070000D03*
X119660000Y-50970000D03*
D14*
X122310000Y-67820000D03*
X124210000Y-67820000D03*
X122310000Y-66380000D03*
X124210000Y-66380000D03*
X126050000Y-67820000D03*
X127950000Y-67820000D03*
X115150000Y-57820000D03*
X113250000Y-57820000D03*
X126050000Y-66420000D03*
X127950000Y-66420000D03*
X115150000Y-59200000D03*
X113250000Y-59200000D03*
X115150000Y-62220000D03*
X113250000Y-62220000D03*
X126110000Y-58420000D03*
X128010000Y-58420000D03*
X115150000Y-60800000D03*
X113250000Y-60800000D03*
X126110000Y-59820000D03*
X128010000Y-59820000D03*
X76700000Y-71380000D03*
X78600000Y-71380000D03*
D42*
X151000000Y-85000000D03*
X78000000Y-45000000D03*
X151000000Y-45000000D03*
X78000000Y-85000000D03*
M02*
